<?xml version="1.0" encoding="UTF-8" standalone="no"?>
<!DOCTYPE svg PUBLIC "-//W3C//DTD SVG 1.1//EN" "http://www.w3.org/Graphics/SVG/1.1/DTD/svg11.dtd">
<svg xmlns="http://www.w3.org/2000/svg" xmlns:xlink="http://www.w3.org/1999/xlink" version="1.1" width="841.89pt" height="595.276pt" viewBox="0 0 841.89 595.276">
<g enable-background="new">
<g id="Layer-1" data-name="Layer 1">
<clipPath id="cp0">
<path transform="matrix(1,0,0,-1,0,595.276)" d="M 201.623 306.884 C 201.623 189.659 296.653 94.628 413.879 94.628 C 531.103 94.628 626.134 189.659 626.134 306.884 C 626.134 424.109 531.103 519.139 413.879 519.139 C 296.653 519.139 201.623 424.109 201.623 306.884 "/>
</clipPath>
<g clip-path="url(#cp0)">
<path transform="matrix(1,0,0,-1,413.5107,76.43939)" d="M 0 0 C 117.142 0 212.104 -94.962 212.104 -212.104 C 212.104 -329.247 117.142 -424.208 0 -424.208 C -117.143 -424.208 -212.105 -329.247 -212.105 -212.104 C -212.105 -94.962 -117.143 0 0 0 " fill="#231f20" fill-rule="evenodd"/>
<path transform="matrix(1,0,0,-1,413.5107,81.54492)" d="M 0 0 C 114.321 0 206.999 -92.677 206.999 -206.999 C 206.999 -321.32 114.321 -413.998 0 -413.998 C -114.322 -413.998 -207 -321.32 -207 -206.999 C -207 -92.677 -114.322 0 0 0 " fill="#831518" fill-rule="evenodd"/>
<path transform="matrix(1,0,0,-1,413.5107,141.4877)" d="M 0 0 C 81.216 0 147.056 -65.839 147.056 -147.056 C 147.056 -228.272 81.216 -294.111 0 -294.111 C -81.217 -294.111 -147.056 -228.272 -147.056 -147.056 C -147.056 -65.839 -81.217 0 0 0 " fill="#ffffff" fill-rule="evenodd"/>
<path transform="matrix(1,0,0,-1,413.5098,140.44669)" stroke-width="5" stroke-linecap="butt" stroke-miterlimit="10" stroke-linejoin="miter" fill="none" stroke="#231f20" d="M 0 0 C 81.791 0 148.098 -66.307 148.098 -148.098 C 148.098 -229.889 81.791 -296.193 0 -296.193 C -81.791 -296.193 -148.096 -229.889 -148.096 -148.098 C -148.096 -66.307 -81.791 0 0 0 "/>
<path transform="matrix(1,0,0,-1,290.7393,335.644)" d="M 0 0 C -1.723 2.441 -3.184 5.086 -4.396 7.513 C -5.873 10.453 -6.492 11.989 -7.097 12.664 C -7.725 12.595 -9.232 12.441 -11.903 11.517 C -12.936 12.805 -12.693 13.796 -12.838 14.079 C -12.432 14.78 -8.756 15.362 -7.889 16.197 C -8.01 17.652 -8.458 19.974 -8.469 22.036 L -8.65 26.68 C -8.647 27.365 -9.209 27.161 -9.853 26.78 C -11.898 24.938 -16.487 21.336 -14.706 26.68 C -13.828 30.924 -13.262 35.27 -13.151 39.633 C -13.104 41.49 -12.812 43.494 -12.684 45.553 C -12.592 47.036 -11.551 57.255 -11.556 58.427 C -11.662 58.642 -12.615 57.912 -12.792 58.05 C -13.247 58.406 -13.95 58.462 -14.956 57.958 C -16.458 58.458 -16.71 59.938 -16.673 60.982 C -16.637 62.026 -16.309 62.637 -15.207 63.464 C -14.656 63.281 -13.966 62.986 -12.472 63.281 C -12 63.315 -11.472 62.714 -11.014 62.36 C -10.702 62.119 -10.345 61.95 -10.12 62.397 C -9.034 63.267 -7.793 65.866 -6.934 65.989 C -4.467 66.346 -2.271 66.13 5.662 66.367 C 8.599 69.034 15.437 72.234 18.374 73.623 C 17.876 76.668 17.513 78.77 18.233 81.093 C 23.916 86.101 46.867 85.739 51.954 81.78 C 53.032 79.397 52.858 75.993 52.455 74.123 C 58.195 71.542 63.294 68.748 68.47 65.165 C 70.107 65.165 69.468 72.325 69.52 73.772 C 68.97 74.723 68.419 75.675 67.72 76.525 C 66.768 76.626 65.918 76.725 65.167 77.325 C 64.366 78.428 63.515 81.63 65.417 82.08 C 74.691 82.08 80.671 78.077 95.995 78.077 L 106.404 78.077 C 109.696 77.459 107.501 75.224 107.905 73.473 C 108.887 73.668 111.855 76.625 112.61 77.325 C 116.414 80.708 121.023 82.176 125.321 84.633 C 126.098 86.187 124.797 87.212 125.607 88.436 C 128.016 89.317 130.141 91.622 132.99 92.21 C 133.516 92.038 134.034 91.821 134.535 91.591 C 138.41 91.998 149.705 99.238 152.348 93.691 C 154.002 94.232 161.009 93.841 162.256 93.19 C 161.665 98.06 158.667 96.17 155.45 96.743 C 154.741 97.735 156.198 98.147 155.7 99.146 C 151.391 99.663 143.805 96.334 139.669 95.023 C 138.554 95.412 136.505 95.845 138.284 99.045 C 143.051 100.536 147.946 102.273 152.64 103.446 C 152.64 105.79 151.699 105.021 153.298 105.602 C 156.247 105.787 156.598 105.365 155.266 108.255 C 156.311 110.554 157.381 106.824 157.601 106.604 C 158.479 106.604 159.1 106.587 159.753 107.404 C 161 107.404 165.824 107.124 166.359 106.052 C 162.392 103.848 168.563 102.21 169.062 104.702 C 172.041 105.446 175.102 100.598 178.37 100.598 C 178.37 103.232 173.085 104.133 174.617 107.503 C 176.939 108.831 178.918 111.557 181.474 112.408 C 183.274 111.808 183.926 109.706 185.176 108.456 C 184.854 105.875 181.646 106.671 183.325 103.65 C 185.28 101.694 185.263 99.445 187.979 100.998 C 190.747 104.893 195.3 109.551 200.24 110.255 C 201.341 110.255 203.544 110.507 204.393 109.655 C 207.701 103.514 208.117 89.762 205.646 83.833 C 204.552 82.426 203.076 82.395 201.557 82.652 C 199.843 82.942 198.507 83.79 196.872 84.15 C 195.816 84.382 195.372 84.063 195.285 83.444 C 194.99 81.324 199.599 73.018 200.852 71.452 C 203.142 72.67 205.919 73.485 207.13 73.694 C 206.603 77.455 204.586 81.065 211.131 82.107 C 221.487 83.757 231.391 81.129 241.032 77.201 C 245.723 75.29 243.992 72.072 242.537 67.322 C 244.246 66.333 250.296 62.656 250.986 61.061 C 250.341 60.093 245.895 60.603 243.397 60.507 C 241.576 60.436 240.793 60.04 243.279 58.509 C 256.145 46.502 262.29 29.013 256.492 11.617 C 254.121 -1.746 240.284 -13.512 227.665 -16.909 C 219.395 -18.287 206.784 -19.549 199.49 -15.208 C 194.232 -13.455 188.592 -9.249 184.726 -5.349 C 183.716 -4.328 178.37 2.37 178.37 3.209 C 170.369 .801 171.393 1.013 168.925 10.304 C 165.523 23.908 167.434 50.761 183.674 60.911 C 182.846 62.771 181.023 65.711 180.322 68.519 C 178.841 69.752 174.266 67.778 174.266 69.668 C 173.469 70.468 173.161 70.652 173.016 71.821 C 170.853 71.341 170.126 68.331 172.565 67.518 C 172.565 65.165 171.564 65.165 169.613 64.415 C 168.643 60.54 167.73 56.333 166.259 52.654 C 164.401 45.592 162.914 38.07 160.504 31.185 C 159.234 24.84 156.871 19.086 155.85 12.616 C 153.713 6.207 153.306 2.22 146.591 -.545 C 129.066 -.545 111.791 -2.096 93.793 -1.546 C 79.478 -1.638 79.316 -1.062 77.527 -3.798 C 75.518 -3.637 73.026 -3.38 70.421 -3.097 C 69.46 -3.304 64.672 -7.802 62.615 -9.152 C 51.846 -15.883 41.886 -19.14 29.034 -17.511 C 26.36 -17.171 22.19 -16.085 18.235 -14.532 C 11.629 -11.939 4.145 -5.874 0 0 M 153.054 50.204 L 154.402 55.178 C 154.734 56.346 154.859 57.136 155.187 58.067 C 155.649 59.779 155.005 60.196 153.697 61.111 C 152.348 61.462 150.695 61.412 149.293 61.462 C 148.942 61.361 148.793 61.312 148.793 60.911 C 149.544 59.861 149.994 59.06 149.544 57.759 L 149.544 55.307 C 149.344 54.506 148.793 53.956 148.042 53.704 C 147.992 53.254 147.992 52.804 147.992 52.304 C 148.843 51.453 150.244 51.102 151.346 50.702 C 151.985 50.507 152.563 50.435 153.054 50.204 M 154.915 54.904 L 153.559 49.87 C 153.74 49.705 153.904 49.488 154.048 49.201 C 154.497 48.85 154.949 48.45 155.399 48.049 C 156.449 47.3 157.252 46.197 157.751 44.946 C 158.102 44.497 158.502 44.046 158.901 43.546 C 159.052 43.846 159.204 44.146 159.354 44.446 C 159.702 46.649 160.403 48.801 161.005 50.952 C 161.504 53.604 162.655 56.357 162.655 59.01 C 161.555 59.56 160.353 60.011 159.153 60.311 C 156.003 60.311 155.63 57.32 154.915 54.904 M 214.688 -6.179 C 213.843 -4.911 214.266 -4.276 214.793 -2.956 C 216.484 5.129 216.484 5.129 216.802 7.665 C 217.413 7.665 219.673 2.179 219.919 1.694 C 219.919 -.087 218.094 -3.708 219.549 -4.436 C 220.131 -.842 220.131 -.842 220.554 .426 C 221.667 -2.358 224.475 -6.025 219.707 -5.81 C 219.39 -4.011 219.612 -5.756 218.915 -5.756 C 218.915 -4.703 218.704 -4.714 218.704 -5.544 C 217.383 -5.968 216.115 -6.073 214.688 -6.179 M 211.307 -5.968 C 210.514 -5.65 209.722 -5.387 208.929 -5.123 L 209.563 7.136 C 210.567 8.721 212.469 9.831 213.579 11.309 C 215.725 11.309 215.535 11.04 216.484 9.143 C 216.221 4.282 214.583 -.842 213.474 -5.598 C 212.997 -5.862 212.997 -5.862 211.307 -5.968 M 207.449 -5.123 C 206.393 -4.752 205.23 -3.749 204.279 -3.59 C 204.385 -2.639 204.913 -1.371 205.653 3.067 C 206.298 3.777 208.215 6.396 208.929 6.396 C 208.613 -3.38 208.613 -3.38 208.347 -4.963 Z M 224.04 -4.911 C 221.504 -3.008 220.131 2.275 221.293 5.233 C 222.317 3.747 227.564 -2.253 227.264 -4.064 C 225.308 -4.805 225.308 -4.805 224.04 -4.911 M 203.012 -3.59 C 202.165 -3.114 201.163 -2.639 200.845 -1.688 C 201.947 -1.688 203.899 2.434 204.913 2.434 C 205.182 .553 204.775 -2.883 203.012 -3.59 M 228.479 -3.168 C 225.943 -.261 223.671 2.908 221.504 6.079 C 221.398 6.818 221.398 6.818 222.349 12.525 C 223.817 12.892 224.006 13.515 225.625 12.525 C 228.319 8.456 230.328 3.438 231.808 -1.265 C 231.015 -2.587 229.958 -2.956 228.479 -3.168 M 199.154 -1.265 C 198.098 -.473 197.041 -.051 196.83 1.271 C 197.622 1.535 197.992 2.381 198.467 3.015 C 199.286 3.537 205.548 9.316 205.548 9.566 C 205.759 9.726 205.971 9.831 206.234 9.936 C 205.438 4.63 204.793 .346 199.154 -1.265 M 229.587 10.622 C 229.905 9.619 232.02 8.985 232.97 8.51 C 234.502 5.181 238.623 .108 232.758 -.842 C 227.105 11.257 227.105 11.257 227.157 11.626 C 228.954 10.728 228.954 10.728 229.587 10.622 M 195.773 1.694 C 192.549 2.866 199.309 4.87 197.305 6.872 C 195.492 6.872 193.343 .911 193.343 5.129 C 198.732 12.631 198.732 12.631 200 14.691 C 201.333 14.691 201.691 14.903 200.422 14.903 C 200.422 15.336 206.114 19.554 206.446 15.906 C 205.548 15.748 204.649 15.536 203.751 15.325 C 204.703 15.378 206.498 15.906 207.291 15.378 C 207.239 13.846 207.133 12.367 206.604 10.939 C 203.224 7.98 200.053 4.812 196.406 2.116 C 196.406 1.551 196.319 1.694 195.773 1.694 M 236.562 2.327 C 236.562 3.476 234.646 6.228 233.868 7.505 C 236.384 7.505 241.601 3.134 236.562 2.327 M 220.024 2.751 C 218.862 5.129 216.802 7.611 217.435 10.307 C 217.858 10.095 217.858 10.095 220.764 5.867 C 220.5 4.863 220.235 3.807 220.024 2.751 M 205.971 4.23 C 206.498 7.294 206.129 10.412 208.929 12.102 C 208.824 10.412 208.771 8.667 208.719 6.924 C 207.766 6.025 206.867 5.129 205.971 4.23 M 191.915 5.129 C 189.485 8.667 189.749 8.298 192.762 11.309 C 194.874 12.367 196.987 13.424 199.154 14.479 C 197.922 12.552 193.954 5.808 191.915 5.129 M 238.94 5.339 C 234.025 8.192 234.025 8.192 233.392 8.298 C 232.811 9.46 232.283 10.622 231.754 11.732 C 235.188 11.203 238.465 9.777 241.74 8.562 C 241.74 6.606 240.63 5.762 238.94 5.339 M 220.659 7.029 C 219.761 8.456 218.862 9.884 218.018 11.309 C 219.18 11.521 220.342 11.732 221.504 11.891 C 220.869 7.136 220.869 7.136 220.659 7.029 M 209.352 7.876 L 209.352 12.948 C 210.779 12.948 212.047 12.102 213.314 11.469 C 209.881 8.086 209.881 8.086 209.352 7.876 M 229.587 10.622 C 228.743 11.996 226.84 11.944 226.153 13.846 C 227.792 13.37 229.43 12.843 231.066 12.313 C 231.543 11.257 232.02 10.2 232.546 9.143 C 231.543 9.672 230.54 10.146 229.587 10.622 M 216.59 9.566 C 216.096 10.927 215.425 11.333 217.065 11.098 C 216.991 10.42 217.362 9.566 216.59 9.566 M 241.265 15.325 C 242.558 14.607 242.959 13.918 244.224 13.16 C 243.714 6.018 236.021 12.188 231.278 12.736 C 229.346 16.48 228.266 16.997 230.011 20.819 C 233.868 20.503 237.83 17.122 241.265 15.325 M 188.111 11.046 C 187.518 13.123 190.791 12.882 192.339 13.053 C 190.913 12.419 189.485 11.732 188.111 11.046 M 207.449 11.891 C 207.766 14.268 207.766 14.268 208.084 14.797 C 209.157 13.722 208.904 12.377 207.449 11.891 M 229.799 13.16 C 228.531 13.688 227.264 14.216 226.049 14.691 C 226.471 15.325 227.526 16.171 228.267 17.122 C 228.285 17.122 231.652 13.775 229.799 13.16 M 190.859 13.37 C 191.017 13.688 191.017 13.688 197.464 16.593 C 197.305 16.117 197.305 16.117 196.83 15.959 C 197.414 14.793 202.377 21.072 202.377 18.178 C 198.868 16.424 194.81 13.709 190.859 13.37 M 187.055 13.581 C 186.686 14.744 186.314 15.906 185.999 17.016 C 190.12 17.545 190.12 17.545 196.406 17.967 C 193.289 16.541 190.173 15.061 187.055 13.581 M 242.744 14.479 C 242.216 14.797 241.74 15.061 241.265 15.325 C 239.573 17.545 234.871 19.395 232.44 20.819 C 236.561 23.514 241.962 19.917 245.544 18.126 C 246.243 15.794 245.484 13.111 242.744 14.479 M 185.787 18.072 C 185.364 19.552 185.046 20.979 185.733 22.354 C 189.696 23.25 193.606 26.157 197.78 25.734 C 199.789 24.783 201.69 23.674 203.856 23.092 C 199.789 25.205 199.789 25.205 197.886 25.945 C 198.467 27.688 202.531 26.838 203.698 26.209 C 203.963 25.311 203.963 25.311 204.068 22.299 C 198.609 17.832 192.532 18.271 185.787 18.072 M 245.915 18.707 C 244.118 19.657 242.321 20.557 240.525 21.455 C 242.005 21.824 246.02 22.299 246.812 21.507 C 246.847 20.504 247.208 18.707 245.915 18.707 M 231.702 21.243 C 231.49 21.401 231.333 21.561 231.173 21.666 C 233.921 22.775 235.03 23.831 237.513 22.088 C 232.758 21.561 232.758 21.561 231.702 21.243 M 238.94 22.088 C 238.147 22.617 237.406 23.145 236.668 23.621 C 239.362 24.518 244.013 27.002 246.812 26.633 C 248.557 21.349 242.427 22.247 238.94 22.088 M 230.434 22.511 C 230.485 23.621 230.54 24.678 230.646 25.734 C 232.97 24.572 232.97 24.572 234.344 23.621 C 231.49 22.617 231.49 22.617 230.434 22.511 M 184.94 22.986 C 184.994 24.255 185.046 25.47 185.152 26.685 C 188.534 28.006 192.762 28.112 196.091 26.578 C 193.87 25.628 193.87 25.628 184.94 22.986 M 235.294 24.043 C 235.136 24.308 230.961 26.157 230.592 26.526 C 230.274 27.637 229.958 28.745 229.693 29.855 C 231.173 32.392 242.427 31.493 245.81 31.44 C 250.512 26.738 238.123 24.957 235.294 24.043 M 196.406 26.578 C 196.248 26.845 196.248 26.845 194.187 27.847 C 195.492 27.995 200.287 29.312 200.845 27.637 C 197.675 26.685 197.675 26.685 196.406 26.578 M 203.435 26.79 C 202.312 27.911 202.445 27.76 204.12 28.218 C 204.02 27.294 204.451 26.79 203.435 26.79 M 185.364 27.847 C 185.258 29.749 185.258 29.749 185.575 31.229 C 187.848 30.7 189.749 29.592 191.81 28.481 Z M 201.955 36.354 C 203.715 33.495 207.677 26.607 200.634 28.587 C 201.955 28.851 203.275 29.115 204.597 29.326 C 201.269 29.433 201.269 29.433 199.789 29.221 C 195.773 31.811 191.81 34.398 187.848 36.936 C 187.848 38.625 188.217 39.788 189.696 40.686 C 191.123 40.263 199.946 38.362 201.955 36.354 M 192.814 28.481 C 189.592 30.277 187.373 31.229 186.156 32.074 C 185.999 33.659 186.156 34.347 186.632 35.932 C 190.308 35.932 195.497 31.023 198.838 29.115 Z M 203.224 34.24 C 199.72 40.372 206.863 34.307 205.548 31.018 C 204.544 31.335 203.751 33.342 203.224 34.24 M 228.954 31.229 C 228.373 32.18 227.792 33.13 227.211 34.028 C 228.795 34.24 230.223 34.609 231.808 34.452 C 230.855 33.342 230.116 31.968 228.954 31.229 M 234.025 34.24 C 232.813 33.431 231.61 32.344 230.592 31.281 C 231.583 33.703 232.275 34.795 234.871 34.981 C 234.555 34.77 234.29 34.504 234.025 34.24 M 233.604 33.817 C 234.904 35.772 246.803 39.305 245.756 32.92 C 241.37 31.757 236.245 31.811 231.702 31.44 C 232.071 32.604 232.97 32.867 233.604 33.817 M 226.364 34.452 C 225.89 34.821 225.731 35.297 224.198 36.301 C 223.988 40.58 229.112 42.801 231.914 45.071 C 231.914 46.214 235.281 48.037 236.351 48.136 C 238.199 46.657 239.573 46.288 238.517 43.909 C 236.456 41.109 234.396 38.308 232.389 35.456 C 230.38 35.139 228.373 34.821 226.364 34.452 M 233.182 35.508 C 233.607 36.089 238.623 43.803 239.573 43.803 C 240.205 45.698 242.951 41.004 241.476 41.004 C 239.721 37.77 236.527 36.213 233.182 35.508 M 236.985 36.144 L 236.985 36.565 C 239.521 37.675 243.271 43.382 244.224 37.621 C 241.794 37.146 239.362 36.671 236.985 36.144 M 202.8 36.988 C 201.057 37.727 201.108 38.044 200.264 39.788 C 200.911 39.855 203.688 37.432 202.8 36.988 M 199.577 38.044 C 194.927 39.63 194.927 39.63 189.803 41.69 C 190.278 42.641 190.754 43.54 191.282 44.438 C 194.346 44.438 196.987 42.008 199.629 40.423 C 200.392 38.897 201.515 38.321 199.577 38.044 M 218.704 38.256 C 217.065 39.682 216.167 41.954 215.216 43.909 C 216.907 51.253 216.907 51.253 218.281 55.692 C 228.022 58.063 220.705 38.256 218.704 38.256 M 216.378 39.947 C 214.959 40.851 214.077 40.938 214.898 42.853 C 215.534 42.22 216.644 40.846 216.378 39.947 M 225.52 40.792 C 226.055 42.311 231.447 56.66 235.188 49.192 C 232.652 45.97 228.743 43.382 225.52 40.792 M 213.631 41.267 C 212.796 41.937 212.939 42.862 211.941 42.114 C 212.047 44.226 212.047 44.226 212.574 47.291 C 213.367 45.864 214.847 44.226 214.055 42.641 C 213.685 43.382 213.314 44.069 212.997 44.755 C 212.893 44.226 213.736 41.902 213.631 41.267 M 198.521 41.69 C 196.687 42.777 194.917 44.489 193.184 45.23 C 193.184 50.945 199.19 43.702 198.521 41.69 M 211.095 44.438 C 210.195 46.009 202.563 57.331 208.559 54.476 C 209.563 52.152 210.567 49.773 211.624 47.397 C 211.581 46.619 211.93 44.438 211.095 44.438 M 214.688 44.649 C 212.893 48.03 212.893 48.03 212.681 48.876 C 213.104 53.79 213.314 54.213 213.421 55.692 C 214.583 56.273 215.745 56.115 217.119 56.115 C 217.806 53.262 215.534 47.45 214.688 44.649 M 203.435 46.339 C 201.428 48.048 197.881 50.229 200.845 52.204 C 201.638 50.62 203.435 48.136 203.435 46.339 M 228.267 48.454 C 228.743 49.879 229.271 51.307 229.799 52.733 C 232.365 51.771 230.083 49.032 228.267 48.454 M 223.405 48.876 C 223.459 50.884 223.512 52.891 223.616 54.846 C 228.115 55.408 224.583 51.035 223.405 48.876 M 211.729 49.934 C 210.473 52.411 206.686 57.426 212.786 55.904 C 212.679 54.907 212.617 49.934 211.729 49.934 M 35.626 -2.968 C 35.203 -1.911 35.573 -1.224 35.785 -.168 C 36.841 -.168 37.951 -.168 39.061 -.22 C 38.48 -3.021 38.215 -2.546 35.626 -2.968 M 32.033 -2.756 C 31.452 -2.491 30.871 -2.229 30.29 -1.965 C 30.237 -.113 30.184 1.735 30.131 3.584 C 30.501 3.53 30.871 3.479 31.242 3.425 C 32.086 1.47 33.197 .468 35.203 -.009 C 34.94 -.801 34.675 -1.594 34.411 -2.387 C 33.724 -2.649 33.724 -2.649 32.033 -2.756 M 39.906 -2.546 C 39.748 -1.753 39.588 -.96 39.482 -.22 C 40.436 -.273 41.438 -.325 42.442 -.431 C 42.706 -1.066 42.706 -1.33 42.494 -1.965 C 41.597 -2.122 40.75 -2.334 39.906 -2.546 M 28.863 -2.122 C 27.965 -1.805 27.121 -1.541 26.274 -1.278 C 25.958 .468 25.853 2.051 26.274 3.796 C 28.863 3.69 28.863 3.69 29.55 3.425 C 29.497 1.682 29.497 -.113 29.497 -1.911 C 29.285 -1.965 29.075 -2.017 28.863 -2.122 M 43.71 -1.278 C 43.604 -1.066 43.552 -.854 43.499 -.643 C 44.978 -.749 44.978 -.749 45.507 -1.066 C 44.872 -1.118 44.292 -1.172 43.71 -1.278 M 23.738 -.431 C 23.21 -.062 22.682 .256 22.206 .571 C 22.312 2.316 23.792 3.849 25.481 3.849 C 25.323 2.475 25.166 1.101 25.06 -.273 C 24.583 -.325 24.161 -.379 23.738 -.431 M 20.146 1.47 C 19.564 1.841 18.983 2.211 18.402 2.526 L 18.402 3.479 C 19.776 4.535 21.677 4.06 23.316 4.006 C 22.893 2.632 21.519 1.576 20.146 1.47 M 17.345 3.796 C 17.029 3.954 16.711 4.111 16.394 4.218 C 16.657 4.747 17.556 4.323 18.085 4.218 C 17.821 4.111 17.556 3.954 17.345 3.796 M 12.907 10.188 C 12.484 10.348 12.114 10.506 11.745 10.611 C 12.907 12.354 14.439 13.886 15.813 15.577 C 17.504 16.053 19.247 16.529 20.991 17.005 C 20.885 16.74 20.832 16.476 20.779 16.158 C 20.621 16.106 20.463 16.053 20.304 16.001 C 20.198 15.683 20.092 15.366 19.986 15.05 C 20.092 14.996 20.198 14.944 20.357 14.891 C 21.995 17.109 23.581 19.065 25.587 15.895 C 26.961 15.472 27.121 14.31 26.538 12.883 C 24.213 12.46 21.519 12.83 19.089 12.936 L 19.089 13.359 C 17.556 12.989 15.97 13.095 14.387 13.147 C 14.281 12.196 14.227 11.192 14.175 10.188 Z M 10.581 11.034 C 10.477 11.244 10.423 11.456 10.371 11.668 L 9.948 11.668 C 9.63 12.408 9.104 13.253 9.261 14.046 C 11.11 14.573 12.959 15.05 14.808 15.525 C 13.806 13.676 12.378 12.354 10.581 11.034 M 27.121 12.513 L 27.121 14.679 C 28.282 14.363 28.441 13.834 29.391 13.147 C 28.81 12.566 27.965 12.618 27.121 12.513 M 49.047 13.781 C 48.255 14.151 47.514 15.366 47.779 16.264 C 49.257 14.363 49.257 14.363 49.469 13.781 Z M 43.921 14.046 L 43.921 14.996 C 44.397 14.784 44.872 14.573 45.401 14.363 C 44.872 14.258 44.397 14.151 43.921 14.046 M 47.356 14.046 C 46.246 14.469 45.19 14.891 44.133 15.313 L 44.133 15.737 C 44.609 15.683 45.084 15.631 45.613 15.525 L 45.613 17.005 C 46.034 16.951 46.458 16.899 46.933 16.793 C 47.197 15.947 47.462 15.102 47.726 14.203 C 47.568 14.151 47.462 14.098 47.356 14.046 M 49.892 14.046 C 49.417 14.784 48.941 15.525 48.466 16.212 C 49.574 16.001 50.685 15.789 51.795 15.525 L 51.795 14.891 C 50.843 14.258 50.843 14.258 49.892 14.046 M 8.837 14.891 C 8.362 15.26 8.362 15.26 7.993 16.158 C 16.711 18.167 16.711 18.167 17.292 18.113 C 15.231 15.313 12.167 15.42 8.837 14.891 M 51.583 15.737 C 49.786 16.424 47.989 16.74 47.145 18.484 C 49.047 17.796 50.949 17.109 52.851 16.37 C 52.797 16.212 52.745 16.053 52.692 15.895 C 52.322 15.841 51.953 15.789 51.583 15.737 M 16.923 16.582 C 18.508 18.537 19.934 19.171 22.576 18.906 C 21.308 17.162 18.877 17.109 16.923 16.582 M 6.514 20.81 C 6.408 22.71 6.408 22.71 6.671 23.239 C 17.979 26.673 17.979 26.673 19.299 26.885 C 19.776 26.726 20.251 26.568 20.779 26.356 C 20.779 25.246 21.096 24.35 20.991 23.186 C 16.13 22.395 11.321 21.602 6.514 20.81 M 53.908 21.865 C 53.327 22.077 52.745 22.289 52.217 22.499 L 52.217 22.922 C 52.903 23.027 53.59 23.133 54.331 23.186 L 54.331 22.71 L 54.752 22.71 L 54.752 21.865 Z M 50.949 22.922 C 50.262 23.345 50.262 23.345 50.104 23.82 L 50.949 23.82 L 50.949 24.455 C 50.791 24.507 50.631 24.56 50.473 24.612 C 50.315 24.931 50.209 25.246 50.104 25.512 C 51.108 24.877 52.111 24.243 53.167 23.608 C 52.428 23.397 51.689 23.186 50.949 22.922 M 53.908 23.82 C 52.903 24.507 51.899 25.193 50.949 25.827 C 52.428 25.827 53.59 25.141 53.908 23.82 M 6.302 24.031 C 6.038 25.458 6.144 26.41 6.302 27.836 C 12.272 29.421 12.272 29.421 13.119 29.421 C 14.702 28.681 16.288 27.941 17.873 27.201 C 11.851 25.405 11.851 25.405 6.302 24.031 M 50.737 26.568 C 50.156 27.466 51.16 27.782 51.372 28.469 C 51.055 28.629 50.737 28.734 50.473 28.84 C 50.525 29.262 50.579 29.633 50.685 30.002 C 50.843 30.054 51.002 30.108 51.16 30.16 L 51.16 30.583 C 50.791 30.741 50.421 30.847 50.05 30.952 C 50.104 31.217 50.156 31.481 50.262 31.693 C 50.949 31.64 51.689 31.533 52.428 31.429 C 51.847 29.791 51.953 28.205 52.217 26.568 Z M 19.089 27.412 C 17.398 28.205 15.707 28.998 14.069 29.737 C 17.662 30.636 17.61 30.319 20.569 28.469 L 20.569 27.836 C 20.04 27.73 19.564 27.572 19.089 27.412 M 6.302 28.681 L 6.302 31.852 C 8.151 31.217 10.001 30.53 11.851 29.843 C 10.001 29.473 8.151 29.104 6.302 28.681 M 20.569 28.892 C 19.723 29.473 18.877 30.054 18.085 30.583 C 18.824 31.322 20.357 31.111 21.308 31.007 C 20.938 30.424 20.938 30.424 20.569 28.892 M 12.695 30.16 C 8.998 31.64 5.615 31.693 7.306 36.185 C 9.685 36.185 14.439 32.326 16.394 31.007 C 15.866 30.689 15.866 30.689 12.695 30.16 M 17.135 31.007 C 14.702 32.644 12.272 34.281 9.896 35.867 C 9.685 36.605 8.837 36.66 8.311 37.187 C 12.22 37.187 17.979 34.704 21.836 33.595 C 21.36 31.376 19.035 31.533 17.135 31.007 M 52.428 32.063 C 51.953 32.326 51.477 32.538 51.055 32.75 C 52.903 34.757 53.063 34.757 55.862 34.862 C 55.545 33.858 53.327 32.696 52.428 32.063 M 50.104 32.75 C 49.998 32.908 49.892 33.065 49.786 33.171 C 51.16 34.123 51.16 34.123 51.477 34.018 C 50.896 33.437 50.791 33.065 50.104 32.75 M 53.908 35.286 L 53.908 35.707 C 54.489 35.655 55.122 35.603 55.757 35.497 C 55.122 35.443 54.489 35.392 53.908 35.286 M 23.104 37.187 C 21.731 38.033 21.519 38.509 20.779 39.935 C 21.625 39.829 22.47 39.67 23.316 39.513 C 23.526 38.772 23.738 37.98 23.95 37.187 Z M 20.991 37.822 C 17.292 38.932 13.7 40.2 10.16 41.678 C 10.16 43.211 11.427 44.216 12.589 44.955 C 14.598 44.216 17.24 43.528 18.93 42.155 C 19.564 40.622 20.357 39.354 21.36 37.98 C 21.202 37.928 21.096 37.874 20.991 37.822 M 21.414 40.569 C 19.882 41.414 19.882 41.414 19.564 41.943 C 20.463 41.943 21.044 41.256 21.731 40.781 C 21.625 40.728 21.519 40.675 21.414 40.569 M 20.357 42.313 C 18.771 43.263 18.402 44.11 17.556 45.693 C 16.553 46.011 16.236 47.648 15.76 48.547 C 16.394 50.238 17.029 50.662 18.718 50.873 C 20.463 46.751 20.463 46.751 21.625 42.947 C 21.202 42.735 20.779 42.524 20.357 42.313 M 54.541 43.792 C 55.176 44.004 55.333 44.479 55.651 45.06 C 56.867 44.691 58.082 44.268 59.297 43.844 C 59.243 43.581 59.243 43.263 59.243 42.947 C 57.87 42.418 56.021 43.105 54.541 43.369 Z M 17.345 43.369 C 17.186 43.634 15.126 44.426 12.907 45.693 C 13.171 46.751 14.121 47.173 14.387 48.02 L 15.231 48.02 C 15.654 47.067 17.24 44.849 17.979 43.369 Z M 22.258 43.581 C 21.308 46.222 20.357 48.864 19.405 51.454 C 19.986 52.457 20.251 52.457 21.308 53.038 C 22.576 51.243 22.576 51.243 25.641 45.272 C 24.479 44.743 23.369 44.162 22.258 43.581 M 54.541 43.792 C 52.48 43.792 50.104 44.849 48.095 45.483 C 48.149 45.747 48.255 45.958 48.361 46.17 C 50.685 46.909 52.903 45.853 55.228 45.272 C 54.964 44.797 54.752 44.32 54.541 43.792 M 29.075 53.566 C 29.391 52.51 29.391 52.51 30.659 50.344 C 30.871 48.653 30.871 48.653 30.765 46.961 C 30.026 47.173 25.747 54.306 26.01 55.099 C 27.542 55.204 27.807 54.571 28.652 53.461 C 28.758 53.515 28.916 53.566 29.075 53.566 M 31.4 47.173 C 31.452 47.648 31.506 48.125 31.611 48.547 C 31.769 48.231 31.927 47.86 32.138 47.491 C 31.875 47.385 31.611 47.279 31.4 47.173 M 32.879 47.385 C 32.404 48.231 31.927 49.022 31.506 49.815 C 31.663 51.664 31.557 55.31 32.825 56.578 C 33.778 56.578 34.728 56.578 35.732 56.525 C 34.253 49.499 34.253 49.499 33.566 47.544 C 33.301 47.491 33.091 47.438 32.879 47.385 M 34.359 47.597 C 34.359 50.186 35.89 53.621 36.629 56.155 C 37.897 56.79 38.902 56.472 40.33 56.314 L 40.33 55.891 L 40.75 55.891 L 40.75 52.932 L 39.906 52.932 C 39.377 51.824 38.532 52.457 37.528 51.929 C 37.159 50.556 36.841 49.181 36.525 47.754 C 35.785 47.702 35.046 47.648 34.359 47.597 M 53.696 48.231 C 53.167 48.495 52.692 48.759 52.217 48.97 C 52.903 49.499 53.538 50.132 54.383 49.551 C 54.277 49.128 54.171 48.706 54.12 48.231 Z M 50.525 49.287 C 50.315 49.393 50.104 49.445 49.892 49.499 L 49.892 50.132 L 48.201 50.132 C 48.361 51.083 49.099 51.77 49.68 52.51 C 50.896 52.245 51.742 51.824 52.851 51.243 C 52.851 51.031 52.851 50.819 52.903 50.556 C 52.005 49.815 51.583 49.551 50.525 49.287 M 29.075 53.566 C 28.758 54.359 28.494 55.152 28.229 55.891 C 29.181 56.05 30.184 56.208 31.188 56.314 C 31.082 51.454 31.082 51.454 30.871 50.607 C 30.026 52.299 30.026 52.299 29.075 53.566 M 47.356 50.607 C 47.674 51.612 48.043 52.616 48.412 53.566 L 49.047 53.566 C 48.676 52.668 48.307 51.77 47.989 50.819 C 47.779 50.767 47.568 50.713 47.356 50.607 M 43.499 51.664 C 42.706 51.981 41.915 52.245 41.174 52.51 C 41.332 53.621 41.543 54.677 41.755 55.733 C 42.653 55.785 42.653 55.785 44.767 55.258 C 45.084 53.725 44.82 53.25 44.186 51.824 C 43.921 51.77 43.71 51.718 43.499 51.664 M -10.746 45.815 C -10.451 49.521 -9.966 54.722 -8.84 58.811 C -8.417 60.346 -7.318 61.623 -6.252 62.686 C -5.085 63.853 -3.302 63.792 2.425 63.529 C -3.545 58.088 -6.836 52.842 -10.746 45.815 M 173.916 87.586 C 173.565 87.785 173.216 87.986 172.865 88.186 C 172.465 88.837 172.114 89.488 171.765 90.138 C 171.313 91.589 170.464 92.89 170.113 94.342 C 170.563 94.792 171.514 95.744 172.264 95.393 C 172.264 93.14 173.666 91.139 174.216 89.086 L 174.216 88.23 C 174.505 87.953 175 87.335 175.117 87.335 C 175.468 86.484 175.867 85.584 175.618 84.633 C 175.367 84.583 175.117 84.483 174.917 84.382 C 174.667 85.131 174.152 86.588 173.957 87.605 C 173.944 87.599 173.93 87.592 173.916 87.586 M 197.927 70.997 C 197.627 71.647 195.098 77.207 194.846 77.807 C 194.146 77.807 194.446 79.06 194.496 79.359 L 194.797 79.359 C 195.047 79.009 195.347 78.658 195.646 78.308 C 196.948 76.037 198.98 70.283 199.017 70.916 C 198.816 70.916 198.077 71.045 197.927 70.997 M 147.092 31.836 C 146.241 32.085 145.59 32.436 144.89 32.986 C 144.64 33.587 143.39 35.088 142.738 35.088 C 142.687 35.839 142.687 36.589 142.687 37.29 C 143.237 38.191 143.689 39.091 144.439 39.842 C 144.538 40.092 144.64 40.342 144.79 40.593 C 144.79 41.343 144.79 42.095 144.841 42.845 C 145.341 43.096 145.84 43.346 146.341 43.595 C 146.942 43.996 147.542 44.896 147.992 45.447 C 148.894 45.447 149.794 45.498 150.645 44.997 C 150.846 44.646 151.046 44.296 151.296 43.946 C 151.095 43.396 150.944 42.794 150.795 42.194 C 150.795 40.443 150.795 37.841 150.045 36.289 C 149.745 34.938 149.493 32.835 148.292 31.935 C 147.893 31.935 147.491 31.885 147.092 31.836 M 110.109 33.787 C 108.157 34.136 108.206 36.789 107.354 38.191 C 107.156 39.392 107.105 40.793 106.205 41.694 C 105.504 44.245 105.654 46.748 105.705 49.401 C 105.603 49.65 105.504 49.851 105.453 50.051 L 105.453 50.903 C 105.555 52.204 105.954 53.755 105.555 55.005 C 105.204 55.457 104.904 55.907 104.602 56.306 C 103.252 56.908 101.801 56.458 100.75 57.759 L 100.75 58.809 C 101.649 60.362 102.801 61.813 104.403 62.613 C 105.253 63.464 106.205 63.714 107.405 63.414 L 107.405 63.114 C 106.004 62.413 105.954 62.512 105.954 61.012 C 106.454 60.511 107.606 60.311 108.256 60.71 C 109.257 60.71 109.006 59.21 108.957 58.56 C 109.057 58.309 109.156 58.059 109.308 57.759 C 109.308 56.558 109.207 55.206 109.557 54.055 C 109.557 53.655 109.507 53.355 109.257 53.104 C 106.754 52.705 106.904 52.153 106.605 49.902 C 106.605 49 106.605 48.1 106.805 47.198 C 106.805 44.896 106.404 42.745 108.406 41.143 C 108.807 40.542 108.807 39.792 108.856 39.091 C 108.957 38.842 109.107 38.591 109.257 38.291 C 109.857 37.94 110.858 38.041 111.209 37.34 C 111.26 36.74 111.309 35.988 111.56 35.438 C 111.509 34.987 111.458 34.537 111.409 34.087 C 111.26 34.036 111.108 33.986 111.008 33.887 C 110.708 33.887 110.408 33.836 110.109 33.787 M 124.971 34.688 C 124.821 34.738 124.671 34.787 124.521 34.838 C 124.121 36.139 123.821 38.141 124.421 39.392 C 124.921 39.392 125.321 39.091 125.723 38.842 C 126.122 37.589 126.673 35.839 125.621 34.787 C 125.372 34.787 125.171 34.738 124.971 34.688 M 123.47 41.043 C 122.869 41.844 122.269 42.644 121.718 43.445 C 121.369 43.595 121.018 43.747 120.718 43.896 L 120.718 44.946 C 121.417 45.648 121.369 45.498 122.369 45.198 C 122.569 44.847 122.82 44.497 123.069 44.146 C 123.52 43.747 123.971 43.295 124.472 42.845 C 124.421 42.494 124.421 42.095 124.421 41.694 C 124.071 41.493 123.771 41.294 123.47 41.043 M 119.115 43.546 C 118.314 43.996 116.915 43.846 115.963 43.996 C 115.512 44.596 115.313 45.297 115.313 46.047 C 115.813 46.748 117.616 46.698 118.314 46.248 C 118.767 45.798 119.217 45.348 119.667 44.896 C 119.717 44.547 119.766 44.197 119.867 43.796 C 119.616 43.747 119.367 43.645 119.115 43.546 M 118.215 51.653 C 116.714 53.154 117.465 54.705 118.015 56.558 L 119.115 56.558 C 119.616 55.506 119.266 53.854 120.718 53.505 C 120.317 52.854 119.816 52.253 119.217 51.752 C 118.866 51.752 118.515 51.703 118.215 51.653 M 114.762 54.306 C 114.711 55.706 114.711 57.607 114.111 58.86 C 113.662 59.01 113.211 59.109 112.76 59.21 C 112.459 59.409 112.16 59.609 111.859 59.81 L 111.859 60.011 C 112.21 60.26 112.61 60.511 113.011 60.71 C 113.211 60.961 113.41 61.211 113.662 61.462 C 114.362 61.462 115.413 61.262 116.012 61.663 C 116.414 62.463 117.115 62.814 118.116 62.814 C 118.465 62.263 118.314 61.711 118.065 61.162 C 116.513 59.861 116.663 57.709 116.012 56.006 C 115.163 55.506 115.163 55.256 114.962 54.306 Z M 78.429 55.256 C 78.178 55.307 77.979 55.808 77.928 56.006 C 76.777 56.507 76.027 57.007 75.377 58.059 C 75.227 58.309 75.125 58.56 75.026 58.809 C 75.026 59.711 74.876 60.661 75.125 61.512 C 75.176 61.512 75.227 61.462 75.326 61.412 L 75.326 61.262 C 75.576 61.162 75.877 61.061 76.178 60.961 C 76.927 59.609 77.678 58.258 78.48 56.908 C 78.78 55.958 79.68 55.556 78.429 55.256 M 131.979 56.408 C 131.527 56.857 131.176 57.308 131.326 58.059 C 131.428 58.309 131.527 58.56 131.677 58.759 C 131.527 60.011 130.828 60.961 132.027 61.562 C 132.178 61.412 132.378 61.262 132.579 61.111 C 132.779 60.761 133.029 60.411 133.279 60.06 C 133.179 59.76 133.079 59.409 133.029 59.06 C 132.429 58.458 132.378 57.208 131.979 56.408 M 136.332 57.007 C 135.631 57.709 136.281 58.309 136.281 59.01 C 135.73 59.711 135.181 60.362 134.881 61.162 C 134.581 61.462 134.33 61.762 134.08 62.012 C 133.88 62.313 133.729 62.613 133.58 62.914 L 133.58 64.265 C 134.23 64.565 134.63 64.365 135.231 63.963 C 135.932 63.963 136.632 63.963 137.333 63.915 C 137.984 62.963 137.433 61.962 136.933 61.061 C 136.882 60.362 136.533 59.409 136.533 58.759 C 136.882 58.509 137.282 58.158 137.433 57.808 C 137.232 57.409 136.782 57.108 136.332 57.007 M 85.885 59.51 C 84.785 61.562 83.433 63.714 82.183 65.666 C 80.932 66.717 79.68 66.217 78.279 65.615 C 77.343 64.681 75.339 61.893 74.775 63.864 C 74.775 67.87 75.87 66.829 79.33 67.818 C 84.884 67.818 90.191 68.511 95.747 68.46 C 97.398 68.811 99.098 68.868 100.899 68.669 C 100.899 68.618 100.95 68.568 100.999 68.468 C 100.75 68.319 100.549 68.118 100.348 67.917 C 99.749 66.717 97.697 66.717 96.546 67.167 C 93.335 67.38 88.821 62.695 87.336 60.011 C 86.986 59.459 86.485 59.56 85.885 59.51 M 158.803 62.763 C 158.502 62.963 158.251 63.114 158.001 63.264 C 158.001 63.963 158.052 64.665 158.102 65.315 C 158.302 65.465 158.553 65.615 158.803 65.716 C 159.953 65.615 160.154 63.963 160.154 63.013 C 159.902 62.763 159.153 62.763 158.803 62.763 M 111.659 62.914 C 111.309 63.363 110.858 63.813 110.858 64.415 L 111.008 64.415 L 111.008 64.614 C 111.709 65.065 112.109 64.814 112.86 64.415 C 112.86 63.514 112.51 63.163 111.659 62.914 M 154.099 63.013 C 153.748 63.213 153.397 63.414 153.046 63.563 C 152.546 63.813 152.045 64.064 151.596 64.314 C 151.896 64.515 152.246 64.715 152.597 64.916 C 153.648 64.916 154.599 65.215 155.148 64.214 C 154.998 63.163 155.049 63.163 154.099 63.013 M 118.015 63.663 C 117.916 63.915 117.865 64.115 117.814 64.314 C 119.067 64.464 120.317 64.565 121.618 64.665 C 121.868 64.565 122.169 64.464 122.469 64.314 C 121.969 63.813 119.316 63.915 118.615 63.915 C 118.416 63.864 118.215 63.764 118.015 63.663 M 105.003 69.369 C 104.854 69.419 104.704 69.47 104.602 69.519 C 104.704 70.771 104.704 70.72 105.654 71.371 C 105.854 71.671 106.053 71.922 106.305 72.171 C 106.505 72.272 106.704 72.321 106.904 72.372 C 107.006 72.873 107.105 73.422 107.756 73.422 C 107.756 73.223 107.756 73.022 107.806 72.771 C 107.156 71.521 106.754 70.27 105.654 69.47 C 105.402 69.47 105.204 69.419 105.003 69.369 M 75.026 73.623 C 74.325 74.023 74.125 74.123 73.774 74.875 C 73.825 75.175 73.875 75.475 73.924 75.775 C 74.226 75.775 75.075 75.274 75.276 75.074 C 75.227 74.624 75.176 74.173 75.176 73.724 C 75.125 73.724 75.075 73.673 75.026 73.623 " fill="#231f20" fill-rule="evenodd"/>
<path transform="matrix(1,0,0,-1,228.7812,216.41931)" d="M 0 0 L 16.539 -7.384 L 13.913 -16.555 L 1.536 -10.536 C 1.653 -10.733 2.384 -11.416 3.727 -12.581 C 5.569 -14.157 7.44 -15.543 9.348 -16.743 C 12.097 -18.458 14.729 -19.675 17.254 -20.398 C 19.7 -21.1 22.407 -20.799 25.363 -19.508 C 27.477 -18.575 29.646 -17.177 31.857 -15.309 C 33.359 -14.055 34.247 -13.211 34.546 -12.764 L 30.698 -26.2 C 28.041 -28.128 25.501 -29.462 23.084 -30.197 C 19.999 -31.127 16.941 -31.152 13.917 -30.287 C 11.771 -29.672 9.332 -28.441 6.583 -26.579 C 4.647 -25.268 2.583 -23.654 .396 -21.749 C -1.252 -20.305 -2.121 -19.498 -2.225 -19.323 L .445 -10 L -2.503 -8.744 Z M 43.001 15.936 L 47.773 12.2 L 39.289 -2.645 L 10.857 18.323 L 16.121 27.531 L 38.458 8.97 Z M 43.617 65.484 L 68.873 39.613 L 63.229 33.104 L 57.462 38.345 L 54.512 33.884 L 58.601 27.768 L 53.421 21.795 L 32.624 48.056 L 39.499 54.974 L 36.722 57.535 Z M 40.489 54.072 L 51.582 37.956 L 54.402 41.208 Z M 75.885 92.397 L 81.744 80.927 L 75.4 75.938 L 69.068 87.035 Z M 86.065 70.717 C 86.378 70.427 86.648 70.125 86.882 69.825 C 87.745 68.728 88.322 67.395 88.616 65.819 C 88.824 64.699 88.911 63.213 88.878 61.358 L 88.772 56.883 L 77.624 48.115 L 78.825 54.923 C 79.083 56.387 79.137 57.816 78.98 59.217 C 78.822 60.606 78.481 61.641 77.96 62.302 C 77.393 63.024 76.482 63.461 75.219 63.624 C 74.036 63.725 72.849 63.831 71.65 63.939 C 69.855 64.23 68.519 64.567 67.623 64.944 C 66.45 65.46 65.397 66.304 64.473 67.479 C 63.758 68.388 63.169 69.711 62.706 71.448 C 62.332 72.805 62.063 74.202 61.907 75.644 C 61.76 76.874 61.718 77.555 61.764 77.697 L 70.156 84.277 C 70.123 84.251 70.163 83.694 70.279 82.597 C 70.414 81.21 70.614 79.992 70.872 78.944 C 71.263 77.392 71.75 76.25 72.337 75.503 C 73.148 74.472 74.104 73.752 75.192 73.344 C 75.962 73.059 77.199 72.824 78.909 72.655 C 81.311 72.38 82.634 72.222 82.875 72.181 C 84.239 71.917 85.304 71.433 86.065 70.717 M 114.266 111.81 L 117.208 99.269 L 109.854 95.944 L 106.363 108.234 Z M 118.959 88.32 C 119.192 87.964 119.383 87.605 119.539 87.259 C 120.113 85.987 120.354 84.555 120.262 82.953 C 120.195 81.818 119.924 80.354 119.447 78.56 L 118.274 74.24 L 105.351 68.396 L 108.147 74.72 C 108.747 76.08 109.142 77.453 109.325 78.851 C 109.505 80.237 109.422 81.326 109.074 82.092 C 108.696 82.928 107.915 83.572 106.729 84.032 C 105.604 84.413 104.477 84.801 103.339 85.192 C 101.667 85.904 100.449 86.551 99.671 87.132 C 98.654 87.915 97.834 88.985 97.218 90.347 C 96.741 91.401 96.487 92.827 96.454 94.624 C 96.416 96.031 96.491 97.451 96.683 98.89 C 96.835 100.118 96.957 100.791 97.036 100.917 L 106.759 105.296 C 106.721 105.278 106.625 104.727 106.475 103.636 C 106.274 102.258 106.178 101.026 106.176 99.946 C 106.185 98.346 106.385 97.121 106.777 96.255 C 107.316 95.059 108.071 94.132 109.03 93.476 C 109.71 93.014 110.855 92.49 112.474 91.917 C 114.74 91.073 115.986 90.602 116.212 90.506 C 117.472 89.925 118.391 89.197 118.959 88.32 M 140.362 118.854 L 144.328 83.507 L 136.08 81.169 L 130.04 115.927 Z M 181.354 125.626 L 180.178 107.552 L 170.664 106.827 L 172.008 120.524 C 171.864 120.348 171.479 119.423 170.852 117.761 C 170.015 115.486 169.365 113.248 168.902 111.043 C 168.25 107.87 168.022 104.979 168.221 102.358 C 168.414 99.823 169.634 97.39 171.874 95.065 C 173.483 93.407 175.548 91.858 178.067 90.434 C 179.765 89.461 180.867 88.924 181.389 88.797 L 167.454 87.738 C 164.723 89.559 162.587 91.476 161.06 93.489 C 159.117 96.058 158.029 98.917 157.791 102.054 C 157.621 104.279 157.927 106.993 158.718 110.217 C 159.274 112.489 160.07 114.985 161.098 117.698 C 161.878 119.746 162.333 120.84 162.462 121 L 172.131 121.735 L 172.286 124.936 Z M 249.01 104.594 C 248.617 103.194 247.735 101.648 246.391 99.976 C 244.899 98.122 243.217 96.622 241.339 95.468 L 236.284 92.384 L 239.281 79.511 L 228.745 82.474 L 227.131 93.636 L 222.614 84.198 L 214.24 86.552 L 226.32 115.384 L 235.043 112.932 C 235.258 112.871 235.438 112.872 235.592 112.932 C 235.745 112.991 235.812 113.136 235.787 113.349 C 235.779 113.685 235.041 114.544 233.584 115.925 C 232.82 116.559 232.065 117.2 231.319 117.848 L 242.657 117.278 C 242.832 117.229 243.496 116.568 244.65 115.301 C 246.155 113.634 247.301 112.034 248.086 110.491 C 249.184 108.294 249.498 106.327 249.01 104.594 M 238.829 107.603 C 238.878 108.446 238.608 109.381 238.017 110.414 C 237.318 111.656 236.625 112.546 235.934 113.076 L 227.503 94.629 C 227.634 94.635 228.499 95.302 230.108 96.635 C 232.107 98.278 233.779 99.832 235.146 101.302 C 237.067 103.378 238.236 105.152 238.646 106.616 C 238.746 106.965 238.811 107.29 238.829 107.603 M 277.009 101.089 L 257.292 71.484 L 249.475 75.004 L 267.225 105.495 Z M 306.903 69.259 C 306.739 68.932 306.512 68.544 306.213 68.098 C 305.921 67.646 305.741 67.38 305.683 67.299 C 303.9 64.807 301.205 62.458 297.6 60.274 C 294.926 58.653 291.92 57.219 288.59 55.956 C 285.897 54.947 284.323 54.478 283.865 54.562 L 269.71 64.69 L 290.065 87.563 L 297.374 82.303 C 297.77 82.02 298.022 81.96 298.138 82.123 C 298.206 82.246 298.267 82.356 298.323 82.437 C 298.426 82.537 298.022 83.566 297.122 85.5 C 296.829 86.125 296.371 87.105 295.744 88.415 L 305.244 84.871 C 306.746 82.099 307.682 79.519 308.05 77.124 C 308.505 74.238 308.116 71.622 306.903 69.259 M 297.465 73.005 C 298.547 74.517 299.177 76.037 299.34 77.556 C 299.47 78.631 299.354 79.689 298.987 80.713 C 298.795 81.125 298.601 81.548 298.416 81.985 L 277.403 60.636 C 278.68 60.475 280.605 60.966 283.196 62.119 C 285.782 63.277 288.36 64.792 290.917 66.662 C 293.755 68.754 295.937 70.869 297.465 73.005 M 339.658 47.991 L 333.492 43.914 L 328.386 49.871 L 321.591 45.765 L 326.601 39.921 L 321.29 36.445 L 316.162 42.426 L 309.823 38.55 L 314.873 32.662 L 309.605 29.134 L 298.829 41.702 L 320.408 55.991 C 320.97 55.525 321.53 55.048 322.093 54.583 C 323.324 53.704 324.054 53.438 324.297 53.775 C 324.394 53.879 324.271 54.135 323.927 54.536 C 323.717 54.781 323.491 55.032 323.236 55.293 C 322.98 55.552 322.742 55.804 322.498 56.052 C 322.197 56.403 321.854 56.741 321.462 57.069 C 321.072 57.397 320.792 57.625 320.618 57.737 L 327.527 62.138 Z M 355.153 7.644 C 353.894 6.921 352.182 6.435 350.05 6.184 C 347.686 5.904 345.435 6.011 343.287 6.504 L 337.519 7.843 L 330.642 -3.442 L 325.197 6.051 L 331.862 15.149 L 322.027 11.576 L 317.701 19.121 L 346.518 31.239 L 351.024 23.378 C 351.137 23.184 351.267 23.057 351.418 22.993 C 351.569 22.928 351.718 22.985 351.849 23.154 C 352.079 23.4 352.154 24.529 352.081 26.535 C 351.979 27.525 351.89 28.512 351.812 29.494 L 359.504 21.146 C 359.594 20.989 359.606 20.053 359.542 18.339 C 359.449 16.095 359.145 14.151 358.624 12.5 C 357.869 10.163 356.716 8.54 355.153 7.644 M 349.995 16.921 C 350.622 17.49 351.083 18.346 351.383 19.498 C 351.757 20.874 351.885 21.995 351.762 22.857 L 332.826 15.597 C 332.922 15.51 334.007 15.378 336.088 15.202 C 338.665 14.976 340.948 14.914 342.952 15.006 C 345.778 15.142 347.855 15.588 349.174 16.345 C 349.488 16.526 349.763 16.713 349.995 16.921 M 377.1 -29.932 L 364.262 -30.972 L 362.068 -23.205 L 374.743 -21.584 Z M 353.175 -31.071 C 352.786 -31.25 352.404 -31.384 352.038 -31.487 C 350.694 -31.866 349.243 -31.89 347.674 -31.561 C 346.561 -31.326 345.152 -30.839 343.449 -30.1 L 339.354 -28.295 L 335.5 -14.646 L 341.337 -18.355 C 342.591 -19.151 343.892 -19.745 345.247 -20.135 C 346.59 -20.52 347.677 -20.599 348.488 -20.37 C 349.371 -20.121 350.124 -19.445 350.756 -18.339 C 351.299 -17.285 351.85 -16.229 352.407 -15.161 C 353.361 -13.613 354.181 -12.506 354.873 -11.821 C 355.798 -10.934 356.979 -10.283 358.418 -9.877 C 359.53 -9.563 360.979 -9.523 362.762 -9.757 C 364.158 -9.931 365.552 -10.215 366.944 -10.619 C 368.137 -10.953 368.782 -11.173 368.896 -11.27 L 371.776 -21.537 C 371.766 -21.498 371.234 -21.321 370.179 -21.011 C 368.845 -20.605 367.643 -20.328 366.575 -20.165 C 364.989 -19.935 363.75 -19.95 362.836 -20.208 C 361.572 -20.564 360.541 -21.172 359.752 -22.022 C 359.192 -22.626 358.503 -23.68 357.694 -25.196 C 356.524 -27.312 355.874 -28.473 355.744 -28.681 C 354.981 -29.841 354.126 -30.641 353.175 -31.071 " fill="#ffffff"/>
<path transform="matrix(1,0,0,-1,380.4727,197.87149)" d="M 0 0 L 4.36 0 C 3.827 1.292 3.37 2.269 2.987 2.926 C 2.603 3.589 2.301 3.917 2.086 3.917 C 1.89 3.917 1.649 3.647 1.36 3.109 C 1.067 2.57 .616 1.533 0 0 M -8.493 -6.928 C -8.493 -6.589 -8.412 -6.32 -8.25 -6.119 C -8.091 -5.914 -7.712 -5.704 -7.113 -5.479 C -6.589 -5.311 -6.247 -5.101 -6.087 -4.85 C -5.899 -4.576 -5.644 -4.101 -5.324 -3.42 C -5 -2.745 -4.448 -1.499 -3.662 .319 L -3.26 1.241 C -1.255 5.849 -.159 8.644 .027 9.615 C .037 9.653 .051 9.706 .068 9.789 C .329 11.155 1.128 11.835 2.465 11.835 C 3.242 11.835 3.894 11.744 4.429 11.556 C 4.968 11.369 5.424 11.077 5.808 10.684 C 6.351 10.114 6.95 9.245 7.594 8.077 C 8.241 6.908 9.229 4.857 10.557 1.912 C 10.913 1.104 11.37 .027 11.922 -1.306 C 12.78 -3.384 13.397 -4.622 13.781 -5.014 C 13.936 -5.166 14.168 -5.284 14.493 -5.375 C 14.626 -5.407 14.725 -5.443 14.798 -5.479 C 15.031 -5.585 15.213 -5.745 15.355 -5.955 C 15.493 -6.165 15.561 -6.384 15.561 -6.607 C 15.561 -7.329 15.099 -7.864 14.177 -8.202 C 13.255 -8.543 11.807 -8.712 9.834 -8.712 C 7.598 -8.712 6.028 -8.576 5.132 -8.306 C 4.232 -8.033 3.786 -7.567 3.786 -6.903 C 3.786 -6.636 3.844 -6.411 3.954 -6.223 C 4.063 -6.032 4.247 -5.868 4.497 -5.726 C 4.565 -5.69 4.676 -5.639 4.816 -5.581 C 5.297 -5.375 5.538 -5.125 5.538 -4.828 C 5.538 -4.425 5.21 -4.137 4.558 -3.959 C 3.899 -3.785 2.827 -3.698 1.337 -3.698 C .169 -3.698 -.639 -3.785 -1.083 -3.954 C -1.53 -4.123 -1.754 -4.425 -1.754 -4.85 C -1.754 -5.055 -1.708 -5.214 -1.612 -5.329 C -1.516 -5.438 -1.293 -5.552 -.937 -5.672 C -.516 -5.813 -.242 -5.969 -.11 -6.137 C .018 -6.305 .083 -6.553 .083 -6.877 C .083 -7.512 -.274 -7.978 -.986 -8.27 C -1.703 -8.566 -2.812 -8.712 -4.32 -8.712 C -5.713 -8.712 -6.753 -8.566 -7.447 -8.27 C -8.146 -7.973 -8.493 -7.526 -8.493 -6.928 M 19.923 -7.073 C 19.923 -6.512 20.194 -6.087 20.728 -5.803 C 21.266 -5.525 21.553 -5.361 21.591 -5.315 C 21.828 -5.014 22.016 -3.991 22.143 -2.247 C 22.27 -.507 22.334 1.875 22.334 4.898 C 22.334 5.986 22.27 6.708 22.146 7.063 C 22.023 7.42 21.792 7.712 21.454 7.944 C 21.398 7.98 21.316 8.041 21.197 8.118 C 20.495 8.593 20.143 9.091 20.143 9.62 C 20.143 10.259 20.495 10.735 21.203 11.045 C 21.905 11.35 22.983 11.507 24.439 11.507 C 25.27 11.507 26.001 11.46 26.641 11.374 C 27.279 11.282 27.701 11.172 27.906 11.036 C 28.056 10.93 28.248 10.706 28.476 10.37 C 28.7 10.032 29.152 9.277 29.818 8.109 C 30.184 7.464 30.631 6.643 31.156 5.634 C 32.024 3.954 32.664 3.119 33.083 3.119 C 33.521 3.119 34.133 3.963 34.918 5.648 C 35.49 6.88 35.987 7.894 36.417 8.688 C 36.809 9.409 37.134 9.953 37.385 10.319 C 37.641 10.684 37.863 10.93 38.061 11.068 C 38.315 11.236 38.663 11.355 39.087 11.428 C 39.517 11.497 40.33 11.534 41.535 11.534 C 43.064 11.534 44.146 11.386 44.767 11.089 C 45.393 10.798 45.703 10.319 45.703 9.648 C 45.703 9.195 45.438 8.815 44.904 8.516 C 44.735 8.415 44.622 8.337 44.557 8.272 C 44.274 7.995 44.068 7.364 43.945 6.373 C 43.822 5.383 43.758 3.889 43.758 1.89 C 43.758 0 43.809 -1.562 43.905 -2.8 C 44.004 -4.031 44.127 -4.763 44.278 -4.987 C 44.315 -5.032 44.434 -5.11 44.639 -5.229 C 45.347 -5.631 45.703 -6.141 45.703 -6.768 C 45.703 -7.457 45.314 -7.946 44.535 -8.229 C 43.754 -8.516 42.37 -8.658 40.383 -8.658 C 38.447 -8.658 37.105 -8.511 36.347 -8.214 C 35.589 -7.922 35.21 -7.42 35.21 -6.717 C 35.21 -6.21 35.485 -5.786 36.028 -5.448 C 36.252 -5.301 36.398 -5.187 36.47 -5.096 C 36.667 -4.869 36.799 -4.457 36.878 -3.872 C 36.955 -3.288 36.992 -2.264 36.992 -.799 C 36.992 -.403 36.936 -.101 36.832 .095 C 36.722 .292 36.558 .388 36.334 .388 C 35.987 .388 35.575 -.188 35.106 -1.334 C 34.932 -1.745 34.795 -2.069 34.691 -2.298 C 34.448 -2.845 34.133 -3.58 33.74 -4.506 C 32.705 -6.928 31.937 -8.137 31.439 -8.137 C 31.124 -8.137 30.786 -7.85 30.421 -7.278 C 30.056 -6.708 29.362 -5.248 28.335 -2.899 C 28.138 -2.448 27.896 -1.844 27.614 -1.096 C 27.175 .072 26.795 .657 26.472 .657 C 26.238 .657 26.079 .442 25.997 .012 C 25.91 -.411 25.868 -1.429 25.868 -3.037 C 25.868 -4.086 25.919 -4.748 26.016 -5.023 C 26.115 -5.293 26.303 -5.503 26.581 -5.644 C 26.612 -5.663 26.677 -5.694 26.769 -5.74 C 27.431 -6.068 27.759 -6.502 27.759 -7.037 C 27.759 -7.625 27.467 -8.045 26.878 -8.289 C 26.289 -8.535 25.275 -8.658 23.841 -8.658 C 22.436 -8.658 21.426 -8.535 20.828 -8.289 C 20.225 -8.041 19.923 -7.64 19.923 -7.073 M 67.984 -6.969 C 67.064 -7.625 66.075 -8.123 65.016 -8.456 C 63.951 -8.791 62.838 -8.96 61.668 -8.96 C 60.243 -8.96 58.925 -8.726 57.709 -8.265 C 56.5 -7.799 55.408 -7.109 54.436 -6.192 C 53.399 -5.209 52.605 -4.077 52.043 -2.795 C 51.481 -1.511 51.198 -.169 51.198 1.229 C 51.198 2.593 51.469 3.927 52.002 5.228 C 52.536 6.529 53.294 7.679 54.276 8.68 C 55.239 9.675 56.354 10.442 57.622 10.976 C 58.896 11.509 60.235 11.78 61.646 11.78 C 62.705 11.78 63.787 11.597 64.888 11.231 C 65.988 10.867 66.582 10.684 66.659 10.684 C 66.769 10.684 66.979 10.725 67.294 10.802 C 67.613 10.884 67.874 10.926 68.079 10.926 C 68.819 10.926 69.495 10.419 70.11 9.405 C 70.727 8.396 71.033 7.259 71.033 5.989 C 71.033 5.101 70.782 4.374 70.285 3.807 C 69.787 3.242 69.152 2.958 68.385 2.958 C 67.535 2.958 66.802 3.461 66.175 4.471 C 66.08 4.639 65.997 4.762 65.938 4.844 C 65.375 5.707 64.728 6.368 63.997 6.826 C 63.268 7.278 62.49 7.507 61.668 7.507 C 60.658 7.507 59.869 7.169 59.295 6.498 C 58.718 5.82 58.431 4.891 58.431 3.693 C 58.431 2.785 58.563 1.926 58.833 1.118 C 59.098 .309 59.485 -.42 59.997 -1.069 C 60.614 -1.836 61.308 -2.425 62.089 -2.836 C 62.869 -3.247 63.683 -3.452 64.518 -3.452 C 65.216 -3.452 65.865 -3.333 66.463 -3.097 C 67.064 -2.863 67.7 -2.472 68.371 -1.928 C 68.436 -1.873 68.508 -1.804 68.6 -1.713 C 68.919 -1.412 69.203 -1.255 69.44 -1.255 C 69.814 -1.255 70.13 -1.443 70.386 -1.813 C 70.64 -2.183 70.765 -2.648 70.765 -3.21 C 70.765 -4.164 70.495 -5.032 69.956 -5.813 C 69.416 -6.589 68.832 -6.981 68.211 -6.981 C 68.156 -6.981 68.115 -6.978 68.084 -6.973 C 68.052 -6.969 68.021 -6.969 67.984 -6.969 M -58.236 -190.186 C -58.236 -189.784 -58.012 -189.474 -57.56 -189.251 C -57.443 -189.187 -57.355 -189.142 -57.292 -189.106 C -57.143 -189.014 -57.038 -188.725 -56.976 -188.243 C -56.916 -187.762 -56.884 -186.859 -56.884 -185.531 C -56.884 -184.226 -56.906 -183.17 -56.949 -182.367 C -56.995 -181.566 -57.053 -181.11 -57.126 -180.998 C -57.203 -180.881 -57.344 -180.79 -57.542 -180.719 C -57.743 -180.65 -57.863 -180.599 -57.902 -180.563 C -58.037 -180.453 -58.125 -180.354 -58.171 -180.263 C -58.214 -180.174 -58.236 -180.065 -58.236 -179.937 C -58.236 -179.583 -58.097 -179.321 -57.817 -179.149 C -57.539 -178.976 -57.118 -178.891 -56.556 -178.891 C -56.505 -178.891 -56.177 -178.895 -55.569 -178.912 C -54.96 -178.93 -54.378 -178.939 -53.822 -178.939 C -51.959 -178.939 -50.187 -178.858 -48.504 -178.699 C -48.278 -178.675 -48.15 -178.664 -48.119 -178.664 C -47.74 -178.664 -47.397 -178.947 -47.089 -179.513 C -46.783 -180.076 -46.63 -180.722 -46.63 -181.452 C -46.63 -181.835 -46.715 -182.132 -46.884 -182.339 C -47.054 -182.548 -47.292 -182.653 -47.599 -182.653 C -47.875 -182.653 -48.204 -182.447 -48.579 -182.037 C -48.66 -181.948 -48.724 -181.88 -48.77 -181.829 C -49.115 -181.466 -49.48 -181.213 -49.865 -181.069 C -50.251 -180.927 -50.807 -180.856 -51.538 -180.856 C -51.849 -180.856 -52.09 -180.881 -52.259 -180.936 C -52.43 -180.987 -52.532 -181.066 -52.563 -181.172 C -52.61 -181.323 -52.649 -181.609 -52.687 -182.026 C -52.724 -182.445 -52.741 -182.904 -52.741 -183.406 C -52.741 -183.552 -52.705 -183.644 -52.633 -183.686 C -52.561 -183.729 -52.341 -183.749 -51.973 -183.749 C -51.714 -183.749 -51.523 -183.709 -51.408 -183.629 C -51.292 -183.547 -51.203 -183.398 -51.149 -183.18 C -51.138 -183.138 -51.124 -183.076 -51.106 -182.999 C -50.983 -182.437 -50.718 -182.157 -50.31 -182.157 C -49.901 -182.157 -49.604 -182.38 -49.414 -182.825 C -49.222 -183.272 -49.129 -183.98 -49.129 -184.95 C -49.129 -185.945 -49.232 -186.683 -49.441 -187.158 C -49.646 -187.635 -49.965 -187.875 -50.393 -187.875 C -50.562 -187.875 -50.713 -187.818 -50.849 -187.703 C -50.986 -187.589 -51.068 -187.452 -51.097 -187.296 C -51.109 -187.235 -51.124 -187.153 -51.14 -187.053 C -51.266 -186.254 -51.594 -185.855 -52.125 -185.855 C -52.373 -185.855 -52.535 -185.886 -52.613 -185.945 C -52.687 -186.009 -52.724 -186.191 -52.724 -186.5 L -52.724 -186.593 C -52.724 -187.401 -52.69 -188.014 -52.624 -188.426 C -52.556 -188.84 -52.45 -189.078 -52.308 -189.148 C -52.202 -189.195 -52.051 -189.241 -51.857 -189.282 C -51.659 -189.318 -51.539 -189.353 -51.497 -189.382 C -51.333 -189.481 -51.217 -189.593 -51.143 -189.718 C -51.067 -189.845 -51.029 -189.994 -51.029 -190.171 C -51.029 -190.656 -51.301 -191.005 -51.846 -191.218 C -52.387 -191.433 -53.298 -191.538 -54.572 -191.538 C -55.885 -191.538 -56.821 -191.433 -57.39 -191.221 C -57.953 -191.011 -58.236 -190.665 -58.236 -190.186 M -42.809 -185.124 C -42.809 -184.243 -42.621 -183.381 -42.245 -182.533 C -41.868 -181.687 -41.348 -180.962 -40.686 -180.362 C -40.067 -179.792 -39.354 -179.367 -38.549 -179.088 C -37.744 -178.805 -36.835 -178.664 -35.819 -178.664 C -34.859 -178.664 -33.967 -178.824 -33.14 -179.145 C -32.312 -179.466 -31.593 -179.93 -30.979 -180.535 C -30.382 -181.126 -29.933 -181.817 -29.625 -182.605 C -29.318 -183.392 -29.165 -184.248 -29.165 -185.174 C -29.165 -186.154 -29.339 -187.048 -29.685 -187.849 C -30.029 -188.65 -30.543 -189.36 -31.23 -189.98 C -31.845 -190.537 -32.552 -190.962 -33.356 -191.253 C -34.165 -191.546 -35.031 -191.691 -35.961 -191.691 C -36.669 -191.691 -37.342 -191.602 -37.981 -191.421 C -38.621 -191.238 -39.217 -190.97 -39.773 -190.613 C -40.726 -189.994 -41.471 -189.201 -42.008 -188.231 C -42.542 -187.264 -42.809 -186.228 -42.809 -185.124 M -38.154 -183.36 C -38.154 -183.812 -38.09 -184.317 -37.962 -184.876 C -37.833 -185.438 -37.651 -186.009 -37.416 -186.593 C -37.111 -187.335 -36.764 -187.903 -36.372 -188.294 C -35.982 -188.688 -35.568 -188.884 -35.134 -188.884 C -34.72 -188.884 -34.401 -188.714 -34.169 -188.371 C -33.939 -188.028 -33.822 -187.55 -33.822 -186.936 C -33.822 -186.462 -33.873 -185.973 -33.975 -185.457 C -34.078 -184.944 -34.232 -184.435 -34.431 -183.919 C -34.783 -183.045 -35.146 -182.411 -35.519 -182.014 C -35.894 -181.617 -36.312 -181.422 -36.779 -181.422 C -37.193 -181.422 -37.524 -181.595 -37.776 -181.942 C -38.027 -182.292 -38.154 -182.766 -38.154 -183.36 M -23.61 -183.063 L -23.61 -182.873 C -23.61 -182.293 -23.645 -181.914 -23.709 -181.734 C -23.776 -181.557 -23.907 -181.401 -24.101 -181.267 C -24.119 -181.256 -24.141 -181.241 -24.166 -181.224 C -24.594 -180.947 -24.809 -180.65 -24.809 -180.34 C -24.809 -179.884 -24.474 -179.526 -23.809 -179.272 C -23.144 -179.015 -22.209 -178.887 -21.004 -178.887 C -19.952 -178.887 -19.198 -178.979 -18.745 -179.163 C -18.292 -179.347 -18.062 -179.646 -18.062 -180.062 C -18.062 -180.465 -18.306 -180.804 -18.794 -181.082 C -18.887 -181.139 -18.961 -181.182 -19.014 -181.214 C -19.141 -181.303 -19.236 -181.687 -19.293 -182.356 C -19.353 -183.03 -19.381 -184.063 -19.381 -185.457 C -19.381 -186.627 -19.205 -187.455 -18.854 -187.938 C -18.501 -188.42 -17.915 -188.663 -17.09 -188.663 C -16.651 -188.663 -16.266 -188.594 -15.938 -188.456 C -15.607 -188.32 -15.347 -188.12 -15.149 -187.857 C -14.985 -187.624 -14.865 -187.243 -14.795 -186.723 C -14.725 -186.196 -14.69 -185.253 -14.69 -183.887 L -14.69 -183.357 C -14.69 -182.472 -14.71 -181.874 -14.748 -181.569 C -14.788 -181.261 -14.855 -181.059 -14.95 -180.959 C -14.993 -180.907 -15.181 -180.804 -15.512 -180.645 C -15.844 -180.488 -16.008 -180.271 -16.008 -179.997 C -16.008 -179.651 -15.757 -179.381 -15.252 -179.184 C -14.748 -178.986 -14.055 -178.887 -13.167 -178.887 C -12.4 -178.887 -11.811 -178.983 -11.4 -179.176 C -10.994 -179.367 -10.788 -179.64 -10.788 -179.997 C -10.788 -180.336 -10.994 -180.627 -11.404 -180.867 C -11.492 -180.916 -11.559 -180.952 -11.595 -180.976 C -11.857 -181.149 -12.016 -181.6 -12.072 -182.331 C -12.076 -182.402 -12.083 -182.455 -12.089 -182.497 C -12.122 -183.049 -12.15 -183.812 -12.179 -184.788 C -12.236 -186.899 -12.411 -188.292 -12.708 -188.968 C -13.098 -189.858 -13.744 -190.524 -14.642 -190.973 C -15.544 -191.419 -16.697 -191.641 -18.101 -191.641 C -19.801 -191.641 -21.145 -191.249 -22.129 -190.468 C -23.116 -189.687 -23.61 -188.628 -23.61 -187.299 Z M -5.427 -185.615 C -5.427 -184.226 -5.457 -183.247 -5.517 -182.677 C -5.58 -182.105 -5.68 -181.678 -5.817 -181.394 C -5.897 -181.246 -6.062 -181.118 -6.319 -181.006 C -6.403 -180.976 -6.461 -180.947 -6.502 -180.924 C -6.668 -180.83 -6.796 -180.719 -6.884 -180.591 C -6.973 -180.461 -7.019 -180.325 -7.019 -180.174 C -7.019 -179.746 -6.787 -179.441 -6.329 -179.262 C -5.869 -179.081 -5.07 -178.989 -3.935 -178.989 C -3.561 -178.989 -3.27 -179.007 -3.055 -179.042 C -2.844 -179.072 -2.67 -179.127 -2.531 -179.198 C -2.313 -179.314 -2.051 -179.5 -1.748 -179.752 C -1.443 -180.005 -.952 -180.45 -.273 -181.093 C -.195 -181.17 -.079 -181.278 .078 -181.418 C 1.895 -183.13 2.953 -183.982 3.253 -183.982 C 3.381 -183.982 3.482 -183.918 3.547 -183.783 C 3.613 -183.649 3.646 -183.455 3.646 -183.198 C 3.646 -182.913 3.653 -182.61 3.664 -182.285 L 3.664 -182.134 C 3.664 -181.745 3.618 -181.461 3.525 -181.28 C 3.434 -181.105 3.263 -180.955 3.01 -180.839 C 2.994 -180.828 2.966 -180.813 2.925 -180.796 C 2.585 -180.641 2.415 -180.379 2.415 -180.015 C 2.415 -179.595 2.6 -179.304 2.967 -179.139 C 3.335 -178.969 4.041 -178.887 5.082 -178.887 C 6.015 -178.887 6.659 -178.968 7.022 -179.124 C 7.384 -179.283 7.567 -179.559 7.567 -179.948 C 7.567 -180.171 7.528 -180.351 7.447 -180.485 C 7.365 -180.622 7.174 -180.768 6.866 -180.924 C 6.637 -181.047 6.485 -181.192 6.406 -181.358 C 6.329 -181.525 6.258 -181.906 6.198 -182.497 C 6.146 -183.004 6.107 -183.849 6.078 -185.029 C 6.067 -185.603 6.054 -186.044 6.043 -186.342 C 6.039 -186.57 6.026 -186.899 6.01 -187.321 C 5.961 -189.062 5.898 -190.083 5.821 -190.391 C 5.738 -190.765 5.619 -191.033 5.462 -191.202 C 5.305 -191.369 5.103 -191.453 4.851 -191.453 C 4.606 -191.453 4.264 -191.296 3.822 -190.98 C 3.381 -190.665 2.542 -189.933 1.305 -188.781 C .82 -188.338 .218 -187.766 -.502 -187.069 C -1.509 -186.089 -2.114 -185.598 -2.316 -185.598 C -2.521 -185.598 -2.667 -185.709 -2.75 -185.938 C -2.833 -186.163 -2.875 -186.579 -2.875 -187.187 C -2.875 -187.648 -2.847 -188.066 -2.787 -188.438 C -2.73 -188.809 -2.662 -189.042 -2.591 -189.135 C -2.545 -189.195 -2.37 -189.321 -2.065 -189.506 C -1.76 -189.695 -1.609 -189.933 -1.609 -190.224 C -1.609 -190.637 -1.817 -190.944 -2.236 -191.146 C -2.652 -191.351 -3.284 -191.453 -4.126 -191.453 C -5 -191.453 -5.657 -191.355 -6.092 -191.164 C -6.527 -190.97 -6.744 -190.68 -6.744 -190.288 C -6.744 -190.008 -6.594 -189.767 -6.294 -189.562 C -5.994 -189.356 -5.823 -189.227 -5.786 -189.177 C -5.657 -188.986 -5.566 -188.64 -5.509 -188.141 C -5.456 -187.639 -5.427 -186.797 -5.427 -185.615 M 11.393 -190.355 C 11.393 -190.199 11.419 -190.063 11.467 -189.948 C 11.52 -189.835 11.608 -189.722 11.736 -189.605 C 11.831 -189.519 11.976 -189.438 12.17 -189.356 C 12.366 -189.275 12.483 -189.209 12.521 -189.162 C 12.617 -189.033 12.687 -188.405 12.732 -187.284 C 12.775 -186.16 12.797 -184.385 12.797 -181.953 C 12.797 -181.577 12.776 -181.341 12.734 -181.249 C 12.694 -181.157 12.555 -181.055 12.316 -180.944 C 12.066 -180.814 11.896 -180.684 11.804 -180.548 C 11.712 -180.41 11.668 -180.233 11.668 -180.018 C 11.668 -179.608 11.811 -179.329 12.093 -179.173 C 12.377 -179.015 12.985 -178.939 13.915 -178.939 C 14.078 -178.939 14.314 -178.94 14.628 -178.947 C 14.946 -178.953 15.18 -178.955 15.336 -178.955 C 15.377 -178.955 15.788 -178.953 16.569 -178.947 C 17.351 -178.94 18.115 -178.939 18.864 -178.939 C 20.858 -178.939 22.395 -179.48 23.479 -180.567 C 24.564 -181.655 25.106 -183.201 25.106 -185.206 C 25.106 -186.245 24.946 -187.164 24.629 -187.967 C 24.313 -188.771 23.829 -189.475 23.174 -190.083 C 22.649 -190.569 22.025 -190.92 21.294 -191.139 C 20.564 -191.358 19.653 -191.47 18.567 -191.47 C 18.167 -191.47 17.402 -191.447 16.276 -191.401 C 15.924 -191.384 15.657 -191.373 15.474 -191.366 C 15.251 -191.366 14.971 -191.364 14.64 -191.358 C 14.31 -191.353 14.087 -191.351 13.975 -191.351 L 12.998 -191.351 L 12.754 -191.351 C 12.26 -191.31 11.91 -191.217 11.701 -191.062 C 11.496 -190.908 11.393 -190.673 11.393 -190.355 M 17.111 -183.919 C 17.111 -184.924 17.114 -185.828 17.122 -186.634 C 17.131 -187.438 17.146 -187.98 17.163 -188.257 C 17.188 -188.664 17.249 -188.93 17.337 -189.056 C 17.426 -189.181 17.591 -189.244 17.83 -189.244 C 18.712 -189.244 19.368 -188.937 19.802 -188.317 C 20.233 -187.698 20.449 -186.759 20.449 -185.5 C 20.449 -184.011 20.219 -182.91 19.759 -182.19 C 19.299 -181.472 18.592 -181.112 17.639 -181.112 C 17.5 -181.112 17.383 -181.133 17.292 -181.17 C 17.2 -181.21 17.15 -181.252 17.146 -181.295 C 17.135 -181.341 17.125 -181.51 17.121 -181.797 C 17.114 -182.088 17.111 -182.797 17.111 -183.919 M 36.544 -191.364 L 30.344 -191.364 C 29.822 -191.364 29.469 -191.302 29.286 -191.175 C 29.103 -191.051 29.013 -190.831 29.013 -190.511 C 29.013 -190.188 29.208 -189.915 29.603 -189.692 C 29.792 -189.58 29.925 -189.487 30.002 -189.415 C 30.195 -189.216 30.339 -188.745 30.424 -188.006 C 30.509 -187.271 30.552 -186.058 30.552 -184.377 C 30.552 -183.227 30.524 -182.402 30.464 -181.896 C 30.407 -181.387 30.311 -181.064 30.176 -180.924 C 30.13 -180.879 29.944 -180.771 29.611 -180.599 C 29.279 -180.425 29.115 -180.177 29.115 -179.849 C 29.115 -179.541 29.243 -179.307 29.502 -179.146 C 29.763 -178.983 30.142 -178.904 30.636 -178.904 C 30.728 -178.904 31.277 -178.915 32.288 -178.939 C 33.3 -178.961 34.268 -178.973 35.195 -178.973 C 36.655 -178.973 37.939 -178.898 39.049 -178.749 C 39.155 -178.739 39.218 -178.732 39.236 -178.732 C 39.692 -178.732 40.06 -178.965 40.336 -179.426 C 40.616 -179.888 40.756 -180.502 40.756 -181.267 C 40.756 -181.712 40.661 -182.065 40.477 -182.328 C 40.288 -182.59 40.039 -182.721 39.728 -182.721 C 39.398 -182.721 39.087 -182.508 38.793 -182.08 C 38.695 -181.942 38.621 -181.844 38.564 -181.779 C 38.32 -181.5 38.031 -181.301 37.701 -181.178 C 37.369 -181.055 36.949 -180.993 36.442 -180.993 C 35.799 -180.993 35.382 -181.01 35.195 -181.047 C 35.006 -181.083 34.873 -181.146 34.792 -181.235 C 34.728 -181.313 34.673 -181.51 34.636 -181.822 C 34.596 -182.14 34.576 -182.55 34.576 -183.063 C 34.576 -183.549 34.622 -183.84 34.713 -183.94 C 34.806 -184.039 35.035 -184.092 35.397 -184.092 C 35.661 -184.092 35.845 -184.049 35.954 -183.965 C 36.065 -183.883 36.145 -183.713 36.202 -183.458 C 36.213 -183.412 36.228 -183.35 36.245 -183.265 C 36.375 -182.548 36.638 -182.19 37.03 -182.19 C 37.436 -182.19 37.743 -182.402 37.948 -182.822 C 38.154 -183.244 38.256 -183.877 38.256 -184.725 C 38.256 -185.761 38.145 -186.542 37.925 -187.066 C 37.706 -187.596 37.386 -187.857 36.962 -187.857 C 36.584 -187.857 36.347 -187.555 36.254 -186.952 C 36.248 -186.918 36.242 -186.893 36.237 -186.876 C 36.167 -186.46 36.085 -186.199 35.986 -186.104 C 35.883 -186.006 35.694 -185.958 35.415 -185.958 C 35.095 -185.958 34.887 -186.02 34.791 -186.149 C 34.692 -186.277 34.644 -186.596 34.644 -187.105 C 34.644 -187.822 34.658 -188.292 34.692 -188.513 C 34.728 -188.734 34.784 -188.891 34.87 -188.985 C 34.953 -189.085 35.102 -189.156 35.318 -189.198 C 35.531 -189.241 35.899 -189.262 36.425 -189.262 C 37.067 -189.262 37.6 -189.181 38.026 -189.019 C 38.454 -188.855 38.797 -188.607 39.059 -188.269 C 39.158 -188.144 39.281 -187.967 39.427 -187.731 C 39.714 -187.243 40.028 -187.002 40.361 -187.002 C 40.685 -187.002 40.93 -187.102 41.1 -187.299 C 41.27 -187.495 41.354 -187.783 41.354 -188.162 C 41.354 -188.571 41.298 -188.986 41.181 -189.418 C 41.064 -189.846 40.894 -190.269 40.671 -190.68 C 40.477 -191.048 40.297 -191.308 40.131 -191.453 C 39.968 -191.602 39.788 -191.676 39.592 -191.676 C 39.572 -191.676 39.495 -191.661 39.367 -191.632 C 38.482 -191.455 37.54 -191.364 36.544 -191.364 M 45.176 -190.355 C 45.176 -190.199 45.201 -190.063 45.25 -189.948 C 45.301 -189.835 45.389 -189.722 45.518 -189.605 C 45.612 -189.519 45.757 -189.438 45.951 -189.356 C 46.148 -189.275 46.266 -189.209 46.302 -189.162 C 46.399 -189.033 46.468 -188.405 46.514 -187.284 C 46.556 -186.16 46.58 -184.385 46.58 -181.953 C 46.58 -181.577 46.56 -181.341 46.517 -181.249 C 46.477 -181.157 46.337 -181.055 46.097 -180.944 C 45.849 -180.814 45.678 -180.684 45.587 -180.548 C 45.495 -180.41 45.449 -180.233 45.449 -180.018 C 45.449 -179.608 45.592 -179.329 45.874 -179.173 C 46.16 -179.015 46.768 -178.939 47.697 -178.939 C 47.86 -178.939 48.098 -178.94 48.412 -178.947 C 48.728 -178.953 48.961 -178.955 49.119 -178.955 C 49.158 -178.955 49.569 -178.953 50.351 -178.947 C 51.133 -178.94 51.898 -178.939 52.645 -178.939 C 54.64 -178.939 56.178 -179.48 57.263 -180.567 C 58.346 -181.655 58.889 -183.201 58.889 -185.206 C 58.889 -186.245 58.728 -187.164 58.412 -187.967 C 58.095 -188.771 57.609 -189.475 56.956 -190.083 C 56.432 -190.569 55.806 -190.92 55.077 -191.139 C 54.346 -191.358 53.437 -191.47 52.349 -191.47 C 51.948 -191.47 51.185 -191.447 50.057 -191.401 C 49.706 -191.384 49.438 -191.373 49.255 -191.366 C 49.032 -191.366 48.753 -191.364 48.423 -191.358 C 48.091 -191.353 47.868 -191.351 47.758 -191.351 L 46.779 -191.351 L 46.535 -191.351 C 46.043 -191.31 45.692 -191.217 45.483 -191.062 C 45.278 -190.908 45.176 -190.673 45.176 -190.355 M 50.894 -183.919 C 50.894 -184.924 50.896 -185.828 50.905 -186.634 C 50.913 -187.438 50.927 -187.98 50.944 -188.257 C 50.97 -188.664 51.03 -188.93 51.118 -189.056 C 51.206 -189.181 51.372 -189.244 51.612 -189.244 C 52.493 -189.244 53.15 -188.937 53.584 -188.317 C 54.014 -187.698 54.231 -186.759 54.231 -185.5 C 54.231 -184.011 54 -182.91 53.54 -182.19 C 53.083 -181.472 52.373 -181.112 51.422 -181.112 C 51.28 -181.112 51.164 -181.133 51.072 -181.17 C 50.982 -181.21 50.934 -181.252 50.927 -181.295 C 50.916 -181.341 50.908 -181.51 50.901 -181.797 C 50.896 -182.088 50.894 -182.797 50.894 -183.919 M 70.206 -189.467 C 70.472 -189.467 70.662 -189.403 70.777 -189.282 C 70.892 -189.158 70.974 -188.919 71.022 -188.557 C 71.074 -188.205 71.113 -187.681 71.14 -186.987 C 71.168 -186.291 71.182 -185.481 71.182 -184.556 C 71.182 -183.961 71.125 -183.604 71.008 -183.483 C 70.892 -183.363 70.651 -183.304 70.29 -183.304 C 70.195 -183.304 70.081 -183.307 69.947 -183.313 C 69.813 -183.317 69.73 -183.321 69.696 -183.321 C 69.473 -183.321 69.308 -183.265 69.196 -183.149 C 69.085 -183.035 69.028 -182.865 69.028 -182.643 C 69.028 -182.391 69.162 -182.154 69.431 -181.932 C 69.696 -181.709 70.12 -181.479 70.7 -181.235 C 71.379 -180.952 72.156 -180.726 73.031 -180.55 C 73.904 -180.376 74.721 -180.291 75.479 -180.291 C 75.944 -180.291 76.287 -180.351 76.499 -180.474 C 76.709 -180.596 76.814 -180.793 76.814 -181.062 C 76.814 -181.39 76.615 -181.646 76.216 -181.829 C 76.075 -181.892 75.973 -181.942 75.908 -181.988 C 75.784 -182.063 75.699 -182.234 75.653 -182.508 C 75.604 -182.781 75.583 -183.355 75.583 -184.23 L 75.583 -184.64 L 75.583 -185.224 C 75.583 -186.727 75.611 -187.709 75.671 -188.169 C 75.728 -188.628 75.831 -188.919 75.973 -189.039 C 76.213 -189.236 76.573 -189.356 77.048 -189.402 C 77.211 -189.418 77.327 -189.433 77.4 -189.449 C 77.539 -189.484 77.647 -189.563 77.726 -189.692 C 77.801 -189.82 77.843 -189.991 77.843 -190.202 C 77.843 -190.645 77.55 -190.959 76.966 -191.143 C 76.382 -191.326 75.348 -191.419 73.864 -191.419 C 71.888 -191.419 70.549 -191.326 69.851 -191.146 C 69.151 -190.965 68.803 -190.651 68.803 -190.202 C 68.803 -189.947 68.875 -189.754 69.017 -189.626 C 69.155 -189.498 69.367 -189.433 69.646 -189.433 C 69.713 -189.433 69.808 -189.438 69.93 -189.449 C 70.053 -189.461 70.145 -189.467 70.206 -189.467 M 87.994 -186.299 C 88.14 -186.299 88.256 -186.231 88.345 -186.091 C 88.434 -185.951 88.479 -185.769 88.479 -185.546 C 88.479 -184.968 88.35 -184.453 88.094 -184.008 C 87.836 -183.562 87.549 -183.339 87.227 -183.339 C 87.069 -183.339 86.938 -183.416 86.835 -183.572 C 86.732 -183.729 86.68 -183.934 86.68 -184.191 C 86.68 -184.753 86.817 -185.247 87.093 -185.669 C 87.362 -186.089 87.666 -186.299 87.994 -186.299 M 87.14 -188.973 C 86.94 -189.024 86.746 -189.062 86.561 -189.088 C 86.372 -189.113 86.191 -189.124 86.014 -189.124 C 85.523 -189.124 85.071 -189.031 84.657 -188.845 C 84.247 -188.656 83.882 -188.38 83.565 -188.011 C 83.231 -187.629 82.963 -187.144 82.766 -186.563 C 82.57 -185.98 82.469 -185.382 82.469 -184.761 C 82.469 -183.424 82.929 -182.349 83.844 -181.532 C 84.76 -180.716 85.976 -180.308 87.485 -180.308 C 88.999 -180.308 90.216 -180.719 91.143 -181.54 C 92.071 -182.362 92.535 -183.444 92.535 -184.778 C 92.535 -186.029 92.248 -187.296 91.675 -188.579 C 91.101 -189.863 90.241 -191.167 89.098 -192.494 C 88.77 -192.873 88.507 -193.127 88.313 -193.258 C 88.119 -193.391 87.917 -193.455 87.711 -193.455 C 87.461 -193.455 87.171 -193.398 86.85 -193.288 C 86.527 -193.176 86.208 -193.022 85.896 -192.819 C 85.69 -192.691 85.526 -192.56 85.406 -192.429 C 85.286 -192.295 85.227 -192.175 85.227 -192.069 C 85.227 -191.952 85.351 -191.778 85.602 -191.553 C 85.853 -191.326 86.042 -191.146 86.164 -191.005 C 86.475 -190.654 86.712 -190.309 86.871 -189.969 C 87.034 -189.629 87.124 -189.298 87.14 -188.973 M 100.622 -180.531 L 105.195 -180.531 C 105.77 -180.531 106.16 -180.594 106.368 -180.719 C 106.577 -180.845 106.683 -181.066 106.683 -181.384 C 106.683 -181.812 106.273 -183.201 105.46 -185.552 C 104.647 -187.903 104.006 -189.824 103.532 -191.319 C 103.451 -191.57 103.349 -191.924 103.218 -192.384 C 103.087 -192.844 102.987 -193.139 102.921 -193.268 C 102.857 -193.378 102.739 -193.462 102.557 -193.513 C 102.377 -193.567 102.131 -193.593 101.825 -193.593 C 101.142 -193.593 100.53 -193.473 100 -193.235 C 99.467 -192.999 99.201 -192.759 99.201 -192.515 C 99.201 -192.239 99.622 -191.298 100.47 -189.689 C 100.784 -189.093 101.029 -188.619 101.206 -188.269 C 101.825 -187.073 102.252 -186.22 102.485 -185.704 C 102.719 -185.189 102.836 -184.855 102.836 -184.704 C 102.836 -184.555 102.782 -184.436 102.673 -184.354 C 102.564 -184.271 102.414 -184.23 102.22 -184.23 L 100.211 -184.23 C 99.963 -184.23 99.755 -184.258 99.594 -184.317 C 99.432 -184.374 99.283 -184.471 99.148 -184.605 C 99.109 -184.645 99.053 -184.704 98.975 -184.788 C 98.621 -185.156 98.293 -185.341 97.988 -185.341 C 97.546 -185.341 97.2 -185.167 96.952 -184.821 C 96.704 -184.477 96.581 -184 96.581 -183.396 C 96.581 -182.419 96.75 -181.617 97.087 -180.99 C 97.426 -180.365 97.846 -180.051 98.349 -180.051 C 98.47 -180.051 98.646 -180.114 98.882 -180.241 C 99.017 -180.313 99.115 -180.362 99.184 -180.391 C 99.312 -180.439 99.469 -180.476 99.654 -180.496 C 99.844 -180.52 100.165 -180.531 100.622 -180.531 M 114.717 -180.531 L 119.29 -180.531 C 119.864 -180.531 120.255 -180.594 120.463 -180.719 C 120.672 -180.845 120.777 -181.066 120.777 -181.384 C 120.777 -181.812 120.368 -183.201 119.555 -185.552 C 118.742 -187.903 118.101 -189.824 117.627 -191.319 C 117.546 -191.57 117.444 -191.924 117.313 -192.384 C 117.182 -192.844 117.082 -193.139 117.016 -193.268 C 116.952 -193.378 116.834 -193.462 116.651 -193.513 C 116.471 -193.567 116.226 -193.593 115.92 -193.593 C 115.236 -193.593 114.625 -193.473 114.095 -193.235 C 113.562 -192.999 113.295 -192.759 113.295 -192.515 C 113.295 -192.239 113.719 -191.298 114.564 -189.689 C 114.879 -189.093 115.124 -188.619 115.301 -188.269 C 115.92 -187.073 116.347 -186.22 116.58 -185.704 C 116.813 -185.189 116.931 -184.855 116.931 -184.704 C 116.931 -184.555 116.877 -184.436 116.769 -184.354 C 116.659 -184.271 116.509 -184.23 116.314 -184.23 L 114.307 -184.23 C 114.058 -184.23 113.85 -184.258 113.688 -184.317 C 113.526 -184.374 113.378 -184.471 113.245 -184.605 C 113.204 -184.645 113.147 -184.704 113.069 -184.788 C 112.716 -185.156 112.388 -185.341 112.083 -185.341 C 111.641 -185.341 111.295 -185.167 111.047 -184.821 C 110.799 -184.477 110.676 -184 110.676 -183.396 C 110.676 -182.419 110.845 -181.617 111.182 -180.99 C 111.521 -180.365 111.94 -180.051 112.443 -180.051 C 112.564 -180.051 112.743 -180.114 112.977 -180.241 C 113.111 -180.313 113.21 -180.362 113.278 -180.391 C 113.408 -180.439 113.564 -180.476 113.749 -180.496 C 113.938 -180.52 114.261 -180.531 114.717 -180.531 " fill="#231f20"/>
<path transform="matrix(1,0,0,-1,251.0454,316.9828)" d="M 0 0 L -28.366 4.795 L -29.648 17.196 L -4.028 19.138 L -3.257 11.68 L -26.453 10.906 L -.767 7.413 Z " fill="#ffffff"/>
<path transform="matrix(1,0,0,-1,253.1685,328.1479)" d="M 0 0 L -27.489 -.997 L -28.811 5.502 L -1.652 8.13 Z " fill="#ffffff"/>
<path transform="matrix(1,0,0,-1,259.7905,349.5737)" d="M 0 0 L -27.18 -4.003 L -30.064 3.813 L -15.394 10.288 L -30.921 7.964 L -32.725 13.734 L -7.609 19.473 L -4.421 9.273 L -18.968 3.106 L -1.979 6.33 Z " fill="#ffffff"/>
<path transform="matrix(1,0,0,-1,268.0952,366.87049)" d="M 0 0 L -5.734 -1.551 L -7.144 1.516 L -27.946 -4.172 L -30.783 2.003 L -12.205 8.268 C -12.277 8.2 -11.871 7.644 -10.986 6.598 C -10.102 5.551 -9.555 5.118 -9.346 5.301 C -9.23 5.423 -9.283 5.726 -9.505 6.207 C -9.615 6.449 -9.854 6.891 -10.216 7.531 C -10.579 8.173 -10.836 8.656 -10.986 8.982 C -11.267 9.594 -11.698 10.383 -12.281 11.354 C -12.46 11.667 -12.722 12.088 -13.067 12.616 L -6.73 14.651 Z " fill="#ffffff"/>
<path transform="matrix(1,0,0,-1,271.8979,378.9906)" d="M 0 0 L -14.427 -4.561 L -12.647 -7.4 Z M 7.729 -4.918 L -17.092 -17.737 L -20.627 -12.099 L -15.462 -8.999 L -18.084 -5.83 L -23.539 -7.452 L -26.787 -2.27 L -2.66 7.155 L .898 .508 L 3.41 1.972 Z " fill="#ffffff"/>
<path transform="matrix(1,0,0,-1,293.1934,401.9545)" d="M 0 0 C -.279 .197 -1.568 .513 -3.865 .949 C -6.88 1.528 -9.608 1.787 -12.047 1.729 C -15.465 1.661 -18.148 .994 -20.095 -.274 C -20.79 -.732 -21.373 -1.153 -21.848 -1.536 C -23.051 -2.506 -24.021 -3.538 -24.755 -4.631 C -25.489 -5.724 -26.188 -7.142 -26.853 -8.881 L -14.963 -1.525 L -10.538 -7.017 L -23.29 -14.347 L -32.305 -3.162 C -31.568 -1.263 -30.734 .311 -29.806 1.561 C -28.877 2.812 -27.61 4.084 -26.004 5.378 C -23.961 7.025 -21.33 8.141 -18.111 8.729 C -15.822 9.15 -13.302 9.285 -10.551 9.133 C -8.641 9.027 -7.477 8.903 -7.059 8.758 Z " fill="#ffffff"/>
<path transform="matrix(1,0,0,-1,306.1406,414.2182)" d="M 0 0 L -4.447 -3.584 L -8.791 .653 L -13.767 -2.972 L -9.506 -7.127 L -13.363 -10.174 L -17.724 -5.92 L -22.321 -9.358 L -18.044 -13.53 L -21.833 -16.61 L -30.993 -7.677 L -15.339 4.815 C -14.871 4.489 -14.403 4.163 -13.935 3.838 C -12.922 3.243 -12.334 3.084 -12.172 3.363 C -12.119 3.462 -12.237 3.654 -12.528 3.938 C -12.695 4.103 -12.885 4.275 -13.097 4.461 C -13.31 4.647 -13.517 4.826 -13.717 5.001 C -13.93 5.208 -14.172 5.412 -14.445 5.612 C -14.719 5.814 -15.011 6.001 -15.322 6.174 L -10.284 10.031 Z " fill="#ffffff"/>
<path transform="matrix(1,0,0,-1,338.0039,436.7514)" d="M 0 0 L -18.022 -20.249 L -23.339 -16.82 L -12.589 -3.563 L -25.614 -15.157 L -31.279 -12.313 L -22.772 1.831 L -33.501 -10.266 L -38.306 -7.168 L -22.762 13.174 L -13.939 7.484 L -22.996 -6.947 L -8.358 6.367 Z " fill="#ffffff"/>
<path transform="matrix(1,0,0,-1,347.1567,451.64979)" d="M 0 0 C .614 1.385 .924 2.624 .931 3.715 C .932 3.987 .806 5.129 .552 7.139 C -.131 6.639 -.964 5.879 -1.944 4.862 C -3.128 3.66 -4.212 2.391 -5.199 1.051 C -6.426 -.593 -7.354 -2.129 -7.987 -3.557 C -8.659 -5.071 -9.14 -6.365 -9.43 -7.441 C -9.72 -8.519 -9.959 -9.887 -10.148 -11.547 C -9.675 -11.329 -8.824 -10.681 -7.594 -9.603 C -6.162 -8.34 -4.807 -6.942 -3.528 -5.408 C -1.917 -3.474 -.741 -1.671 0 0 M 7.646 -2.414 C 6.606 -4.756 4.94 -7.025 2.65 -9.225 C .988 -10.812 -.927 -12.296 -3.094 -13.675 C -4.664 -14.672 -5.649 -15.217 -6.051 -15.313 L -15.883 -10.95 C -16.139 -9.485 -16.221 -7.937 -16.128 -6.304 C -16.003 -4.018 -15.534 -1.961 -14.724 -.133 C -14.103 1.266 -13.027 2.823 -11.498 4.537 C -10.407 5.763 -9.136 7.011 -7.684 8.28 C -6.621 9.21 -5.987 9.732 -5.783 9.848 L -.514 7.509 C -.371 7.445 -.219 7.434 -.056 7.472 C .106 7.512 .185 7.602 .179 7.74 C .148 8.25 -.31 9.24 -1.195 10.712 C -1.482 11.182 -1.916 11.861 -2.495 12.751 L 6.86 10.32 C 7.946 7.837 8.576 5.712 8.748 3.942 C 8.957 1.833 8.59 -.285 7.646 -2.414 " fill="#ffffff"/>
<path transform="matrix(1,0,0,-1,378.3394,450.79139)" d="M 0 0 L -2.623 -5.329 L -5.855 -4.362 L -15.326 -23.738 L -21.836 -21.789 L -14.269 -3.702 C -14.266 -3.801 -13.58 -3.863 -12.209 -3.892 C -10.839 -3.918 -10.153 -3.794 -10.151 -3.517 C -10.167 -3.349 -10.429 -3.188 -10.938 -3.036 C -11.192 -2.96 -11.681 -2.847 -12.402 -2.695 C -13.123 -2.545 -13.656 -2.418 -14 -2.315 C -14.644 -2.123 -15.522 -1.926 -16.635 -1.722 C -16.989 -1.649 -17.479 -1.567 -18.104 -1.478 L -15.445 4.625 Z " fill="#ffffff"/>
<path transform="matrix(1,0,0,-1,390.8286,463.65083)" d="M 0 0 C .247 1.495 .237 2.771 -.03 3.83 C -.098 4.094 -.506 5.168 -1.254 7.05 C -1.791 6.395 -2.406 5.451 -3.102 4.221 C -3.945 2.761 -4.678 1.26 -5.298 -.284 C -6.072 -2.185 -6.587 -3.903 -6.843 -5.443 C -7.113 -7.079 -7.254 -8.452 -7.265 -9.566 C -7.276 -10.682 -7.165 -12.065 -6.933 -13.72 C -6.53 -13.391 -5.868 -12.55 -4.947 -11.198 C -3.877 -9.618 -2.915 -7.926 -2.062 -6.118 C -.987 -3.843 -.299 -1.804 0 0 M 8.006 -.421 C 7.586 -2.95 6.542 -5.563 4.875 -8.265 C 3.664 -10.22 2.183 -12.135 .43 -14.013 C -.841 -15.372 -1.658 -16.146 -2.022 -16.339 L -12.634 -14.579 C -13.249 -13.226 -13.716 -11.747 -14.036 -10.142 C -14.487 -7.897 -14.548 -5.789 -14.222 -3.816 C -13.971 -2.306 -13.319 -.53 -12.269 1.513 C -11.52 2.973 -10.601 4.498 -9.513 6.092 C -8.718 7.258 -8.235 7.923 -8.066 8.085 L -2.379 7.142 C -2.225 7.115 -2.074 7.142 -1.927 7.221 C -1.779 7.3 -1.726 7.405 -1.767 7.539 C -1.924 8.024 -2.615 8.869 -3.841 10.071 C -4.237 10.454 -4.827 11.003 -5.61 11.72 L 4.056 11.709 C 5.729 9.578 6.871 7.679 7.481 6.009 C 8.211 4.02 8.387 1.876 8.006 -.421 " fill="#ffffff"/>
<path transform="matrix(1,0,0,-1,415.1582,461.0795)" d="M 0 0 C -.123 .645 -.502 1.295 -1.142 1.954 C -1.901 2.756 -2.589 3.291 -3.207 3.559 L -6.046 -11.859 C -5.952 -11.83 -5.426 -11.165 -4.468 -9.863 C -3.283 -8.255 -2.32 -6.773 -1.58 -5.418 C -.526 -3.494 .017 -1.946 .049 -.774 C .057 -.494 .041 -.235 0 0 M 8.195 -.343 C 8.164 -1.468 7.799 -2.785 7.102 -4.298 C 6.337 -5.965 5.36 -7.407 4.17 -8.624 L .962 -11.888 L 5.634 -20.972 L -2.822 -20.739 L -6.139 -12.678 L -7.742 -20.604 L -14.464 -20.418 L -10.852 3.465 L -3.848 3.271 C -3.676 3.266 -3.539 3.301 -3.435 3.376 C -3.331 3.452 -3.309 3.569 -3.367 3.727 C -3.438 3.979 -4.151 4.482 -5.505 5.239 C -6.199 5.57 -6.885 5.91 -7.563 6.257 L 1.041 7.965 C 1.181 7.962 1.804 7.593 2.909 6.859 C 4.351 5.897 5.511 4.912 6.391 3.902 C 7.632 2.462 8.233 1.047 8.195 -.343 " fill="#ffffff"/>
<path transform="matrix(1,0,0,-1,444.7393,451.4028)" d="M 0 0 L -.547 -13.979 L -7.891 -14.73 L -7.116 -4.121 C -7.229 -4.258 -7.508 -4.978 -7.956 -6.279 C -8.56 -8.053 -9.017 -9.796 -9.328 -11.509 C -9.767 -13.972 -9.882 -16.214 -9.675 -18.234 C -9.475 -20.192 -8.484 -22.045 -6.703 -23.795 C -5.429 -25.047 -3.803 -26.199 -1.826 -27.253 C -.497 -27.965 .368 -28.363 .77 -28.447 L -9.978 -29.549 C -12.126 -28.198 -13.812 -26.761 -15.035 -25.238 C -16.586 -23.292 -17.484 -21.106 -17.732 -18.683 C -17.907 -16.973 -17.724 -14.865 -17.18 -12.359 C -16.795 -10.593 -16.232 -8.65 -15.491 -6.533 C -14.933 -4.937 -14.604 -4.079 -14.506 -3.96 L -7.046 -3.195 L -6.994 -.717 Z " fill="#ffffff"/>
<path transform="matrix(1,0,0,-1,465.9121,446.9545)" d="M 0 0 L -1.184 -28.75 L -7.572 -30.247 L -7.492 -22.983 L -13.722 -24.442 C -14.428 -22.795 -15.004 -21.277 -15.449 -19.89 C -15.896 -18.501 -16.341 -16.856 -16.786 -14.955 C -17.152 -13.389 -17.416 -12.011 -17.574 -10.819 C -17.733 -9.63 -17.865 -8.125 -17.971 -6.303 L -10.943 -4.657 C -10.906 -6.431 -10.854 -7.701 -10.789 -8.473 C -10.693 -9.719 -10.498 -10.973 -10.203 -12.234 C -10.039 -12.935 -9.879 -13.619 -9.723 -14.287 C -9.565 -14.957 -9.412 -15.61 -9.263 -16.249 C -8.978 -17.467 -8.728 -18.447 -8.513 -19.19 C -8.299 -19.935 -7.975 -20.891 -7.541 -22.056 L -7.666 -1.796 Z " fill="#ffffff"/>
<path transform="matrix(1,0,0,-1,485.0723,438.85493)" d="M 0 0 L 3.01 -13.661 L -3.904 -16.248 L -5.841 -5.789 C -5.914 -5.949 -6.003 -6.718 -6.106 -8.09 C -6.241 -9.959 -6.242 -11.761 -6.109 -13.496 C -5.91 -15.99 -5.455 -18.188 -4.743 -20.091 C -4.053 -21.934 -2.625 -23.477 -.459 -24.718 C 1.09 -25.606 2.955 -26.309 5.135 -26.827 C 6.601 -27.18 7.539 -27.346 7.948 -27.326 L -2.17 -31.112 C -4.59 -30.351 -6.586 -29.387 -8.155 -28.223 C -10.146 -26.733 -11.57 -24.847 -12.424 -22.564 C -13.026 -20.955 -13.382 -18.869 -13.489 -16.308 C -13.564 -14.502 -13.513 -12.479 -13.332 -10.243 C -13.195 -8.559 -13.095 -7.645 -13.031 -7.503 L -6.008 -4.875 L -6.585 -2.464 Z " fill="#ffffff"/>
<path transform="matrix(1,0,0,-1,508.2686,453.3822)" d="M 0 0 L 1.495 -4.444 L -10.289 -10.43 L -19.776 15.188 L -12.442 18.911 L -5.915 -2.584 Z " fill="#ffffff"/>
<path transform="matrix(1,0,0,-1,515.0459,422.58729)" d="M 0 0 L 2.493 -5.139 L -2.612 -8.419 L -.198 -14.083 L 4.81 -10.865 L 6.912 -15.308 L 1.786 -18.602 L 4.103 -23.854 L 9.13 -20.623 L 11.28 -25.008 L .516 -31.925 L -8.138 -13.864 C -7.716 -13.481 -7.293 -13.099 -6.87 -12.717 C -6.063 -11.863 -5.776 -11.326 -6.012 -11.105 C -6.098 -11.03 -6.311 -11.103 -6.652 -11.322 C -6.85 -11.448 -7.062 -11.595 -7.29 -11.76 C -7.519 -11.926 -7.74 -12.086 -7.954 -12.243 C -8.204 -12.403 -8.458 -12.594 -8.716 -12.814 C -8.973 -13.036 -9.221 -13.278 -9.458 -13.544 L -12.085 -7.766 Z " fill="#ffffff"/>
<path transform="matrix(1,0,0,-1,544.2227,396.6586)" d="M 0 0 L 15.638 -22.142 L 11.092 -26.544 L .618 -13.069 L 8.958 -28.383 L 4.902 -33.256 L -6.944 -21.765 L 2.406 -34.956 L -1.701 -38.934 L -17.99 -19.185 L -10.448 -11.88 L 1.555 -23.973 L -8.096 -6.697 Z " fill="#ffffff"/>
<path transform="matrix(1,0,0,-1,556.8701,377.62153)" d="M 0 0 L 19.192 -20.583 L 11.31 -31.017 C 10.519 -31.261 9.585 -31.407 8.51 -31.456 C 7.078 -31.511 5.872 -31.333 4.89 -30.923 C 4.284 -30.662 3.633 -30.267 2.935 -29.739 C 2.349 -29.298 1.721 -28.755 1.051 -28.111 C .69 -27.76 .149 -27.205 -.569 -26.446 L -10.033 -16.387 L -5.343 -10.18 L 4.362 -21.009 C 5.361 -22.097 6.348 -23.008 7.319 -23.742 C 7.456 -23.847 7.607 -23.951 7.772 -24.056 C 7.938 -24.161 8.052 -24.237 8.114 -24.283 C 9.146 -24.888 10.155 -25.249 11.143 -25.369 C 12.039 -25.478 13.128 -25.41 14.409 -25.165 L -4.634 -6.133 Z " fill="#ffffff"/>
<path transform="matrix(1,0,0,-1,566.9609,359.33729)" d="M 0 0 L 7.547 -6.497 L 4.468 -11.918 L -3.312 -5.826 Z M 13.607 -12.528 C 13.765 -12.6 13.91 -12.66 14.044 -12.707 C 14.178 -12.757 14.333 -12.832 14.51 -12.933 C 15.434 -13.458 16.229 -14.242 16.894 -15.283 C 17.353 -15.994 17.84 -17.034 18.354 -18.404 L 19.59 -21.64 L 14.172 -31.175 L 13.042 -25.952 C 12.802 -24.827 12.456 -23.822 12.006 -22.937 C 11.506 -21.952 10.957 -21.29 10.359 -20.95 C 10.256 -20.91 10.184 -20.879 10.144 -20.855 C 9.556 -20.594 8.813 -20.589 7.914 -20.843 C 7.016 -21.096 6.137 -21.347 5.277 -21.594 C 3.909 -21.913 2.852 -22.067 2.104 -22.056 C 1.112 -22.031 .113 -21.733 -.892 -21.162 C -1.666 -20.723 -2.476 -19.948 -3.319 -18.84 C -3.98 -17.979 -4.578 -17.055 -5.113 -16.069 C -5.573 -15.233 -5.807 -14.759 -5.814 -14.646 L -1.74 -7.475 C -1.756 -7.501 -1.562 -7.89 -1.162 -8.638 C -.66 -9.589 -.16 -10.403 .335 -11.078 C 1.066 -12.068 1.752 -12.746 2.39 -13.108 C 3.272 -13.609 4.163 -13.846 5.06 -13.817 C 5.662 -13.8 6.617 -13.605 7.924 -13.233 C 9.693 -12.713 10.688 -12.433 10.907 -12.396 C 11.918 -12.196 12.818 -12.241 13.607 -12.528 " fill="#ffffff"/>
<path transform="matrix(1,0,0,-1,574.0146,343.5346)" d="M 0 0 L 4.953 -2.843 L 2.579 -8.43 L 7.762 -11.752 L 10.09 -6.273 L 14.328 -8.763 L 11.945 -14.371 L 16.816 -17.408 L 19.153 -11.908 L 23.397 -14.323 L 18.393 -26.098 L 1.076 -16.041 L 1.478 -14.377 C 1.664 -13.219 1.6 -12.612 1.281 -12.563 C 1.169 -12.549 1.032 -12.729 .873 -13.104 C .781 -13.317 .687 -13.558 .593 -13.823 C .497 -14.088 .404 -14.346 .314 -14.596 C .198 -14.869 .096 -15.17 .009 -15.497 C -.08 -15.825 -.148 -16.166 -.196 -16.518 L -5.619 -13.221 Z " fill="#ffffff"/>
<path transform="matrix(1,0,0,-1,579.8867,321.1342)" d="M 0 0 L 25.289 -12.349 L 21.662 -24.912 C 21.011 -25.423 20.191 -25.894 19.205 -26.324 C 17.889 -26.887 16.697 -27.153 15.634 -27.122 C 14.975 -27.095 14.226 -26.96 13.385 -26.718 C 12.68 -26.514 11.899 -26.231 11.044 -25.87 C 10.581 -25.672 9.878 -25.348 8.935 -24.896 L -3.503 -18.891 L -1.345 -11.416 L 11.593 -18.053 C 12.916 -18.712 14.161 -19.209 15.333 -19.548 C 15.498 -19.595 15.676 -19.639 15.868 -19.678 C 16.061 -19.718 16.193 -19.748 16.27 -19.77 C 17.448 -19.964 18.521 -19.939 19.484 -19.697 C 20.361 -19.479 21.354 -19.026 22.463 -18.338 L -2.132 -7.385 Z " fill="#ffffff"/>
<path transform="matrix(1,0,0,-1,584.4902,292.9013)" d="M 0 0 L 26.027 -7.582 L 25.213 -13.855 L 8.626 -9.839 L 24.688 -16.624 L 24.553 -22.962 L 8.125 -21.352 L 23.659 -25.848 L 22.924 -31.518 L -2.122 -26.214 L -.772 -15.804 L 16.149 -17.785 L -2.16 -10.284 Z " fill="#ffffff"/>
<path transform="matrix(1,0,0,-1,239.6387,273.7987)" d="M 0 0 C 0 -3.689 -2.991 -6.68 -6.68 -6.68 C -10.37 -6.68 -13.361 -3.689 -13.361 0 C -13.361 3.689 -10.37 6.681 -6.68 6.681 C -2.991 6.681 0 3.689 0 0 " fill="#ffffff"/>
<path transform="matrix(1,0,0,-1,603.417,273.7987)" d="M 0 0 C 0 -3.689 -2.991 -6.68 -6.681 -6.68 C -10.37 -6.68 -13.36 -3.689 -13.36 0 C -13.36 3.689 -10.37 6.681 -6.681 6.681 C -2.991 6.681 0 3.689 0 0 " fill="#ffffff"/>
</g>
</g>
</g>
</svg>
