<svg xmlns="http://www.w3.org/2000/svg" xmlns:xlink="http://www.w3.org/1999/xlink" viewBox="0 0 1666.62 933.41"><defs><style>.cls-1{fill:#fff;}.cls-2{fill:url(#linear-gradient);}</style><linearGradient id="linear-gradient" x1="891.46" y1="32.88" x2="1153.28" y2="226.63" gradientUnits="userSpaceOnUse"><stop offset="0" stop-color="#ed1c24"/><stop offset="1" stop-color="#a91e23"/></linearGradient></defs><title>Asset 10</title><g id="Layer_2" data-name="Layer 2"><g id="Layer_1-2" data-name="Layer 1"><path class="cls-1" d="M1601.19,592.69q-9.8-17.7-32.5-54.18l-24.38,24.18v30h-51.89q1.66-40.43,1.67-75.64t-1.67-75.64h51.89v61.06q38.32-37.94,54.59-61.06h67.52l-65.64,65q14.58,20.41,32.82,44.38t33,41.88Z"/><polygon class="cls-2" points="711.11 0 1295.92 0 991.14 438.82 711.11 0"/><path class="cls-1" d="M232.37,85.69,215.46,43.86h11.12L238.47,75,250.6,43.86h10.69L244.14,85.69Z"/><path class="cls-1" d="M252.09,85.69l17.15-41.83H281l16.91,41.83H286.81L283,75.59H266.67l-3.88,10.1Zm17.69-18.28h10.16l-5-13.39Z"/><path class="cls-1" d="M301,43.86h9.68l19,24.27V43.86h9.68V85.69h-9.08l-19.6-25.21V85.69H301Z"/><path class="cls-1" d="M342.38,85.69l17.15-41.83H371.3l16.91,41.83H377.09l-3.82-10.1H357l-3.89,10.1Zm17.69-18.28h10.15L365.2,54Z"/><path class="cls-1" d="M391.26,85.69V43.86h17a22.82,22.82,0,0,1,8.66,1.65,22,22,0,0,1,7,4.45,20.8,20.8,0,0,1,4.69,6.66,19.89,19.89,0,0,1,1.74,8.28A19.33,19.33,0,0,1,428.6,73a20.94,20.94,0,0,1-4.69,6.64,21.78,21.78,0,0,1-7,4.42,23.38,23.38,0,0,1-8.66,1.61ZM408,53h-6.46V76.61H408a11.79,11.79,0,0,0,4.6-.9,11.35,11.35,0,0,0,6.21-6.21,11.83,11.83,0,0,0,.9-4.6,12.13,12.13,0,0,0-.9-4.69,11.53,11.53,0,0,0-2.48-3.8A11.57,11.57,0,0,0,408,53Z"/><path class="cls-1" d="M435.77,85.69V43.86h33v8.91H446.05V60.3h15v8.6h-15v7.89H469v8.9Z"/><path class="cls-1" d="M509.87,82.71,496.12,57.07V85.69h-9.44V43.86h13L510,63.58l10.34-19.72h13V85.69h-9.68V57.19Z"/><path class="cls-1" d="M583.43,64.78a20.78,20.78,0,0,1-1.74,8.45A21.41,21.41,0,0,1,577,80.11a22,22,0,0,1-7.11,4.57,23.94,23.94,0,0,1-17.57,0,22.21,22.21,0,0,1-7.11-4.57,21.57,21.57,0,0,1-4.72-6.88,21.53,21.53,0,0,1,0-16.91,21.52,21.52,0,0,1,4.72-6.87,22.21,22.21,0,0,1,7.11-4.57,23.94,23.94,0,0,1,17.57,0A22,22,0,0,1,577,49.45a21.36,21.36,0,0,1,4.72,6.87A20.87,20.87,0,0,1,583.43,64.78Zm-10.58,0A12.78,12.78,0,0,0,572,60a11.54,11.54,0,0,0-2.48-3.86,11.7,11.7,0,0,0-3.73-2.54,11.84,11.84,0,0,0-13.06,2.54A11.7,11.7,0,0,0,550.2,60a13.44,13.44,0,0,0,0,9.62,11.65,11.65,0,0,0,2.48,3.85A11.42,11.42,0,0,0,556.42,76a12.14,12.14,0,0,0,9.32,0A11.42,11.42,0,0,0,572,69.59,12.78,12.78,0,0,0,572.85,64.78Z"/><path class="cls-1" d="M632.07,64.78a20.78,20.78,0,0,1-1.74,8.45,21.41,21.41,0,0,1-4.72,6.88,22,22,0,0,1-7.11,4.57,23.94,23.94,0,0,1-17.57,0,22,22,0,0,1-7.11-4.57,21.57,21.57,0,0,1-4.72-6.88,21.53,21.53,0,0,1,0-16.91,21.52,21.52,0,0,1,4.72-6.87,22,22,0,0,1,7.11-4.57,23.94,23.94,0,0,1,17.57,0,22,22,0,0,1,7.11,4.57,21.36,21.36,0,0,1,4.72,6.87A20.87,20.87,0,0,1,632.07,64.78Zm-10.58,0a12.78,12.78,0,0,0-.9-4.81,11.39,11.39,0,0,0-2.48-3.86,11.7,11.7,0,0,0-3.73-2.54,11.84,11.84,0,0,0-13.06,2.54A11.7,11.7,0,0,0,598.84,60a13.44,13.44,0,0,0,0,9.62,11.65,11.65,0,0,0,2.48,3.85A11.42,11.42,0,0,0,605.06,76a12.14,12.14,0,0,0,9.32,0,11.42,11.42,0,0,0,6.21-6.39A12.78,12.78,0,0,0,621.49,64.78Z"/><path class="cls-1" d="M632.72,53V43.86h37.65V53H656.68V85.69H646.41V53Z"/><path class="cls-1" d="M715.72,64.78A20.94,20.94,0,0,1,714,73.23a21.57,21.57,0,0,1-4.72,6.88,22.11,22.11,0,0,1-7.11,4.57,23.94,23.94,0,0,1-17.57,0,22,22,0,0,1-7.11-4.57,21.41,21.41,0,0,1-4.72-6.88,21.41,21.41,0,0,1,0-16.91,21.36,21.36,0,0,1,4.72-6.87,22,22,0,0,1,7.11-4.57,23.94,23.94,0,0,1,17.57,0,22.11,22.11,0,0,1,7.11,4.57A21.52,21.52,0,0,1,714,56.32,21,21,0,0,1,715.72,64.78Zm-10.58,0a12.77,12.77,0,0,0-.89-4.81,11.53,11.53,0,0,0-10.88-7.32,11.81,11.81,0,0,0-4.66.92A11.7,11.7,0,0,0,685,56.11,11.39,11.39,0,0,0,682.5,60a13.3,13.3,0,0,0,0,9.62A11.42,11.42,0,0,0,688.71,76,12.14,12.14,0,0,0,698,76a11.42,11.42,0,0,0,3.74-2.54,11.65,11.65,0,0,0,2.48-3.85A12.77,12.77,0,0,0,705.14,64.78Z"/><path class="cls-1" d="M721.16,85.69V43.86h21.39a17.32,17.32,0,0,1,6,1,14.1,14.1,0,0,1,4.66,2.75,12.56,12.56,0,0,1,3,4.21,12.92,12.92,0,0,1,1.11,5.38,12.11,12.11,0,0,1-2.15,7A13.71,13.71,0,0,1,749.48,69l9.14,16.73H747.15l-7.89-15.23h-7.82V85.69Zm20.43-33H731.44v9.44h10.15a5.55,5.55,0,0,0,3.86-1.32,4.7,4.7,0,0,0,0-6.81A5.59,5.59,0,0,0,741.59,52.65Z"/><path class="cls-1" d="M762.57,85.69V43.86H784a17.32,17.32,0,0,1,5.95,1,14.1,14.1,0,0,1,4.66,2.75,12.56,12.56,0,0,1,3,4.21,12.92,12.92,0,0,1,1.11,5.38,12.11,12.11,0,0,1-2.15,7A13.71,13.71,0,0,1,790.89,69L800,85.69H788.56l-7.89-15.23h-7.82V85.69Zm20.43-33H772.85v9.44H783a5.55,5.55,0,0,0,3.86-1.32,4.7,4.7,0,0,0,0-6.81A5.59,5.59,0,0,0,783,52.65Z"/><path class="cls-1" d="M800.69,85.69l17.15-41.83h11.77l16.91,41.83H835.41l-3.83-10.1H815.27l-3.88,10.1Zm17.69-18.28h10.16l-5-13.39Z"/><path class="cls-1" d="M838.81,53V43.86h37.65V53H862.77V85.69H852.5V53Z"/><path class="cls-1" d="M868.75,85.69,885.9,43.86h11.77l16.91,41.83H903.47l-3.83-10.1H883.33l-3.88,10.1Zm17.69-18.28h10.15l-5-13.39Z"/><path class="cls-1" d="M915.36,79.3l5.73-7.47a29.6,29.6,0,0,0,7,4.42A17.65,17.65,0,0,0,935,77.63a11.7,11.7,0,0,0,5.52-1.08,3.3,3.3,0,0,0,2-3,3.12,3.12,0,0,0-1.35-2.69,11.51,11.51,0,0,0-4.45-1.49l-9.2-1.61a13.45,13.45,0,0,1-7.83-3.89A10.78,10.78,0,0,1,917,56.29a11.35,11.35,0,0,1,4.57-9.53q4.58-3.49,12.58-3.49a29,29,0,0,1,9.41,1.61,26.45,26.45,0,0,1,8.16,4.36l-5.44,7.59a24.89,24.89,0,0,0-6.42-3.76,17.91,17.91,0,0,0-6.43-1.2,10.39,10.39,0,0,0-4.93,1,3,3,0,0,0-1.82,2.66,2.85,2.85,0,0,0,1.17,2.42,9,9,0,0,0,3.79,1.28l8.66,1.44c4,.63,7.08,2,9.18,4a10.51,10.51,0,0,1,3.13,7.89,11.89,11.89,0,0,1-4.93,10q-4.92,3.7-13.41,3.7a28.69,28.69,0,0,1-10-1.85A29.58,29.58,0,0,1,915.36,79.3Z"/><path class="cls-1" d="M953.72,53V43.86h37.64V53H977.68V85.69H967.4V53Z"/><path class="cls-1" d="M995.91,85.69V43.86h33v8.91h-22.71V60.3h15v8.6h-15v7.89h23v8.9Z"/><path class="cls-1" d="M1070,82.71l-13.74-25.64V85.69h-9.44V43.86h13l10.34,19.72,10.34-19.72h13V85.69h-9.68V57.19Z"/><path class="cls-1" d="M1137.82,67.47a21.11,21.11,0,0,1-1.37,7.74,16.62,16.62,0,0,1-9.86,9.74,22,22,0,0,1-7.83,1.34A22.66,22.66,0,0,1,1110.9,85a16.32,16.32,0,0,1-6-3.77,16.75,16.75,0,0,1-3.8-5.94,21.75,21.75,0,0,1-1.34-7.8V43.86H1110V67.47a9.42,9.42,0,0,0,2.42,6.78,8.42,8.42,0,0,0,6.37,2.54,8.29,8.29,0,0,0,6.33-2.54,9.45,9.45,0,0,0,2.39-6.78V43.86h10.28Z"/><path class="cls-1" d="M1181.62,67.47a21.11,21.11,0,0,1-1.37,7.74,16.62,16.62,0,0,1-9.86,9.74,22,22,0,0,1-7.83,1.34A22.66,22.66,0,0,1,1154.7,85a16.32,16.32,0,0,1-6-3.77,16.75,16.75,0,0,1-3.8-5.94,21.75,21.75,0,0,1-1.34-7.8V43.86h10.27V67.47a9.42,9.42,0,0,0,2.42,6.78,8.42,8.42,0,0,0,6.37,2.54,8.29,8.29,0,0,0,6.33-2.54,9.49,9.49,0,0,0,2.39-6.78V43.86h10.28Z"/><path class="cls-1" d="M1184.49,79.3l5.73-7.47a29.6,29.6,0,0,0,7,4.42,17.65,17.65,0,0,0,6.88,1.38,11.7,11.7,0,0,0,5.52-1.08,3.3,3.3,0,0,0,2-3,3.12,3.12,0,0,0-1.35-2.69,11.51,11.51,0,0,0-4.45-1.49l-9.2-1.61a13.45,13.45,0,0,1-7.83-3.89,10.78,10.78,0,0,1-2.75-7.59,11.35,11.35,0,0,1,4.57-9.53q4.57-3.49,12.58-3.49a29,29,0,0,1,9.41,1.61,26.45,26.45,0,0,1,8.16,4.36l-5.44,7.59a24.89,24.89,0,0,0-6.42-3.76,17.87,17.87,0,0,0-6.43-1.2,10.39,10.39,0,0,0-4.93,1,3,3,0,0,0-1.82,2.66,2.85,2.85,0,0,0,1.17,2.42,9,9,0,0,0,3.79,1.28l8.67,1.44q6,.95,9.17,4a10.51,10.51,0,0,1,3.13,7.89,11.89,11.89,0,0,1-4.93,10q-4.92,3.7-13.41,3.7a28.69,28.69,0,0,1-10-1.85A29.58,29.58,0,0,1,1184.49,79.3Z"/><path class="cls-1" d="M1226.43,85.69V43.86h33v8.91h-22.71V60.3h15v8.6h-15v7.89h23v8.9Z"/><path class="cls-1" d="M1303.16,67.47a20.91,20.91,0,0,1-1.38,7.74,16.86,16.86,0,0,1-3.85,5.94,17.09,17.09,0,0,1-6,3.8,22,22,0,0,1-7.83,1.34,22.66,22.66,0,0,1-7.86-1.31,16.45,16.45,0,0,1-6-3.77,16.86,16.86,0,0,1-3.79-5.94,21.53,21.53,0,0,1-1.35-7.8V43.86h10.28V67.47a9.42,9.42,0,0,0,2.42,6.78,8.42,8.42,0,0,0,6.37,2.54,8.29,8.29,0,0,0,6.33-2.54,9.49,9.49,0,0,0,2.39-6.78V43.86h10.28Z"/><path class="cls-1" d="M1332.68,82.71l-13.75-25.64V85.69h-9.44V43.86h13l10.34,19.72,10.33-19.72h13V85.69h-9.68V57.19Z"/><polygon class="cls-1" points="121.07 439.81 105.23 538.37 87.1 439.81 16.25 439.81 0 591.09 53.97 591.09 57.09 483.99 78.35 591.09 132.94 591.09 153.78 483.15 157.12 591.09 211.09 591.09 194.83 439.81 121.07 439.81"/><path class="cls-1" d="M386.85,456.27q-22.39-20.83-70.53-20.83-47.94,0-70.33,20.83t-22.4,57.93q0,37.51,22.5,58.24t70.23,20.74q48.33,0,70.64-20.63t22.29-58.35Q409.25,477.12,386.85,456.27Zm-37.19,85.54q-10.21,8.87-33.34,8.86-22.93,0-33.14-9T273,514.2q0-18.33,10.2-27.29t33.14-9q23.13,0,33.34,9t10.21,27.29Q359.87,533,349.66,541.81Z"/><path class="cls-1" d="M1240.08,520.39a67.94,67.94,0,0,1-1.57,16q-1.56,6.26-9.9,11.36t-26.25,5.1q-16.47,0-23.86-5t-8.75-10.73a66.3,66.3,0,0,1-1.36-14.9V441.2h-51.67v84.4q-.42,31,17.71,50.11t67.3,19.07q48.55,0,69.08-20t20.94-50.63V441.2h-51.67Z"/><path class="cls-1" d="M1436.58,540.6q21.45-5.62,30.31-18.13t8.86-30.63q0-23.13-16.67-36.68t-58.76-13.54H1357.6v-.21h-49.18q1.66,40.43,1.67,75.64t-1.67,75.64h49.18V544.35h30.63q19.8,31.26,29,48.34h56.67l-33.75-46.88A51.83,51.83,0,0,0,1436.58,540.6Zm-11.47-40q-3.54,2.51-12.6,3.65a232.55,232.55,0,0,1-26.78,1.14H1357.6V481.63h28.13a261.56,261.56,0,0,1,27.09,1q9.17,1.05,12.5,3.54a9.23,9.23,0,0,1-.21,14.38Z"/><path class="cls-1" d="M712.43,512l-.06,0,.06,0v-.12l-.11.07a.61.61,0,0,1,.05.12Z"/><path class="cls-1" d="M357.4,417.82c3.91.06,7.82.17,11.71.3-.62-16.72-1.23-33-1.87-49.89-6.42,8.77-11.33,17.24-14.64,26.64a195.18,195.18,0,0,0-6.51,23l2.67-.07a22.72,22.72,0,0,1,.87-3.11Z"/><path class="cls-1" d="M386.83,399.79l-1.63-.53-7.14,19.11,2.64.09c1.24-.15,2.48-.27,3.73-.4C385.22,412.05,386,405.93,386.83,399.79Z"/><path class="cls-1" d="M381.14,400c1.14-1,1-3.46,1.44-5.25a25.84,25.84,0,0,0-6.06,6.63c-2.85,4.66-1.5,9.91-1.6,14.94a2.75,2.75,0,0,0,.55-.64C377.86,410.7,376.34,404.34,381.14,400Z"/><path class="cls-1" d="M374.83,416.45l.09.08v-.17Z"/><path class="cls-1" d="M493.7,377.36l14-9.42-.68-1-13.93,9.76C493.32,376.92,493.51,377.14,493.7,377.36Z"/><path class="cls-1" d="M748.31,600.53l.69,2.09c2,.24,2.73,2.38,1.37,4.17a25.93,25.93,0,0,1-2.63,2.61,15.76,15.76,0,0,1,1.93,1.6,32.14,32.14,0,0,1,2.09,3c.13-2.31.2-3.59.29-5.16,4.19,1,5.24-1.89,6-5a15.94,15.94,0,0,1,2.81,1c3,1.78,3.86-.7,4.54-2.52a4,4,0,0,0-2.3-5.51c-1.76-.79-3.55-1.53-4.75-2.05.21,1.41.58,3.82.94,6.27h-6.42c.35,1.67.57,2.69.79,3.72l-1.12.31c-1.43-2.53,1-7.41-4.38-7.53-1.43-4.35-3.2-1.26-4.3-.75.4,2.61.74,4.76,1,6.74Z"/><path class="cls-1" d="M815.21,582.06c2.34.86,4.37,2.57,6.83,4.09l-2.2-2.42.27-.66,10.38,2c-3.37-1.46-6.89-2.13-10.33-3.07-2.08-.57-4.28-2.6-6-2.19-6.06,1.44-9-2.17-12.27-6-1.68-2-3.92-3.52-6.44-5.72l8.35,9.66h-7.75l13.14,3.65C810.94,580.13,813.31,581.37,815.21,582.06Z"/><path class="cls-1" d="M782.54,689.88c.2.56,1.17.84,2,1.39-1-6.59-1.93-12.75-3-19.72-.63,1.26-1,1.68-1,2.09.12,3.56.18,7.13.54,10.67A23.24,23.24,0,0,0,782.54,689.88Z"/><path class="cls-1" d="M803.44,638.1c-.6-3-1.19-5.88-1.78-8.81C799.38,633.8,800.6,638.11,803.44,638.1Z"/><path class="cls-1" d="M718.9,628l6.78-2.28-4.3-1.89Z"/><path class="cls-1" d="M740.41,693.9c-2.1-1.34-5.71-.9-5.65-4.93,0-.5-2.23-1.72-2.87-1.42-4.22,2-5.25-1.25-6.92-3.78a27.35,27.35,0,0,0-3.58-3.57c-.16,1.31-.23,1.86-.28,2.24-2.55.22-3.7-5.33-7-.73,9.47,5.64,18.42,11.52,29,14A20.36,20.36,0,0,0,740.41,693.9Z"/><path class="cls-1" d="M748.63,695l-7.76-3.23-.51,1.17,7.71,3.33C748.26,695.84,748.44,695.42,748.63,695Z"/><path class="cls-1" d="M740.21,206.74c-4.76-.09-13.14,6.18-15.55,12.67Z"/><path class="cls-1" d="M427.4,251.44c-5.81,17.15,9,21.19,14.53,22.06S539.82,245,561,243.29s72.33,8.15,72.33,8.15,19.17-8.44,16.43-11.21-79.47-12-89.34-12.62S427.4,251.44,427.4,251.44Z"/><path class="cls-1" d="M540.05,407.07Z"/><path class="cls-1" d="M832.44,527.68l1.51.17A8.31,8.31,0,0,0,832.44,527.68Z"/><path class="cls-1" d="M1049,441.62l3.54,116.9-50.64-116.9H925.22q1.66,40.42,1.67,75.43c0,7.31-.06,14.81-.17,22.45l-4.14,8.18c-.09-.4-.16-.8-.25-1.2-.31-1.36-.57-2.74-.82-4.12-.19-1.07-.38-2.12-.57-3.22a83.45,83.45,0,0,0-2.31-10.54c-3.11-10.12-6.23-20.21-10-30.1-1-2.65-2.34-5.18-3-6.62-.23,0-.45,0-.67,0-1.8-4.4-3.36-8.11-4.46-10.69h0c-.29-.68-1-2.25-1.65-3.78,4.74-3.11,9.3-5.67,15.27-4-1-1.33-2.22-2.39-3.25-2.26-11.27,1.47-22.53,3.12-33.78,4.78a7.21,7.21,0,0,0-2,1.08l3.84,2.58-14,1.1c-.26-1.55-.19-2.76-.67-3.7-3.25-6.37-6.43-12.8-10-19-7.66-13.29-16.33-26-27-37a192.08,192.08,0,0,0-35.5-29.41c-10.46-6.64-21.51-11.91-33.62-14.73-1.81-.43-2.49-1.05-1.66-2.88.76-1.66-.1-4.37,3.66-3.47,16.71,4,31.38,12.18,45.15,22a203,203,0,0,1,41.63,39.92c8.88,11.27,18,22.31,24.45,35.24a4.13,4.13,0,0,0,3.29,1.73c6.43-.57,12.86-1.26,19.24-2.24,2.53-.39,5-.89,7.59-1.42l6.74-.33a7.46,7.46,0,0,0,3.88-.9c3-2,1.64-6.7-.09-9.91A240.51,240.51,0,0,0,897,429.53c-8.31-11.72-18.25-22.18-28.14-32.6-6.12-6.44-12.29-12.93-19.57-18-11.28-7.87-24.68-12-37.84-16-6.26-1.9-12.53-3.79-18.88-5.36a188.44,188.44,0,0,0-23.09-4.18,27.36,27.36,0,0,0-6-.06c3.12-5.39,7.2-8.84,14.25-8.48,8.44.42,16.91.1,25.36.1,0-.22,0-.43.05-.64l-4.21-.35v-.25l3.68-.4V331c-3.87-.3-7.39-.65-10.91-.81-3-.14-4.66-.92-4.32-4.62.51-5.33-3.2-7.4-7.73-5.38.86,1.51,2.38,3.05,2.45,4.65,0,1.19-1.59,2.8-2.87,3.54-.61.36-2.14-.88-3.27-1.41,0,3,0,6.39-4.59,6.82l2.77,2.3c-2.69.22-4.42.2-6.09.52-4.4.83-8.65,2.08-10.78,6.58-1.49,3.15-2.91,6.34-4.11,9.61-1.08,3-1.81,6.07-2.77,9.33l4.72-3.12a9,9,0,0,1-.08,1.37c-5.23,18-10.73,36-15.6,54.12-2.48,9.28-3.78,18.87-5.7,28.31l-6.48,34.87.29-3.16c-.77,4.06-1.4,7.37-2.08,11a51.48,51.48,0,0,0-3.95-4.58,2.65,2.65,0,0,0-2.19,0c-.89,2.84-1.58,5.74-2.12,7.86h-1c-12.48-27.33-36.91-79.19-42.63-92.8-6.44-15.32-9.05-31.64-12.83-47.55l7.73-2.62c6.77,33.85,14.92,66.89,27.67,98,2.08.2,4.27-.19,4.84.59.86,1.21,1.4,4.16.72,4.73-3.53,2.93-1.14,5.06.24,7.54l6.29-2.7,1-.52c3.8-1.6,7.62-3.32,10.75,1.23.05.07.38,0,.6-.09a23,23,0,0,0-.83-4.77c-.44-1.13-1.58-2.78-2.44-2.8-2.7-.07-5.41.52-9.07,1-1-2.57-2.27-5.68-3.7-9.24l18.79-7.33.66,1.6-15.75,7.28c3.23.29,5.86.62,8.5.69a6.56,6.56,0,0,0,3.13-.8c3.07-1.61,9.91-2.79,12.44-1.89-2.84,2.85-8.36,1-10.31,5.06l.51,1.06,9-1.57,12.28-64.82c-18.4-3.31-36.2-.59-53.8,5l11.5-4.59c-.12-.34-.25-.67-.38-1L687.11,382c-.29-5.07-.35-5.23,3.8-6.75,4.87-1.79,9.81-3.42,14.79-4.85,5.14-1.47,10.35-2.73,15.57-3.86,4.18-.89,8.43-1.47,12.67-2.11.46-.06,1,.42,1.51.64l-.55.73-4.33.6c4.84.4,9.28.81,13.73,1.08.8.05,2.22-.31,2.37-.79,1-3.14,1.71-6.37,2.62-10H740c-.72-6.13-1.42-12-2.09-17.64-2,.85-4.74,2-7.43,3.12s-5.92,1.59-7.5,3.52c-2.38,2.89-5.66,2.33-8.34,3.69,1.09-1,2.55-1.29,3.63-2.11.85-.64,1.9-2.05,1.71-2.83-.75-3-.5-4.53,1.71-5.87,1-.61,2-1.11,3.65-2l-9.83,1.83-.18-.85,7.82-3.34c-.08-.2-.17-.4-.25-.61l-13.17,3.49c0-.12,0-.24-.08-.36l10.38-4.73-.21-.61-12.06,3.32c.15-1,.54-1.49,1-1.66,2.72-.94,5.46-1.85,8.21-2.7,3.53-1.11,7-2.26,10.63-3.19,3.8-1,8.05-1,11.4-2.78,4.39-2.34,8.65-4.14,13.66-4.25,3.8-.08,7.59-.42,11.37-.85,2.3-.26,4.54-1.14,6.83-1.32,3.64-.29,5.81-1.52,5.44-5.66a15,15,0,0,1,.76-4.48c.16-.74.49-2,.78-2a3.72,3.72,0,0,1,2.5.78,10.44,10.44,0,0,1,3.35,9l-4,.77h8.45c.31-1.13.59-2.12,1-3.61.15,1.59.25,2.62.38,4l10.53.83c-.51-4.59-.86-8.66-1.42-12.7-1.32-9.42-8.7-12.74-17.35-8.28a21.55,21.55,0,0,0-2.86,1.92c-2.31-2-4.18-3.68-6.16-5.21-.26-.2-1.14.4-1.73.63a25.68,25.68,0,0,1,1.79-3.41c4.85-6.62,6.39-14.39,7.77-22.2l.3-4.85c1.64-7.12,1.16-14.19-.28-21.2-2.78-13.56-9-24.92-21.39-32.08-2.08-1.2-4.59-1.67-7.35-2.63.27,2.68.44,4.39.6,6.09l.81-.71c1.92,1,3.9,2,5.77,3.11,8.27,5,13.36,12.69,15.75,21.57,2.17,8,2.57,16.58,3.4,24.93.18,1.88-1.06,3.91-1.66,5.86-1.36,4.42-2.34,9-4.21,13.22-2.95,6.62-7.21,12.27-14.39,15-.56.21-.87,1.07-1.29,1.63a15.74,15.74,0,0,0-3.72-.59,18,18,0,0,1-11.95-3.38c-2.38-1.63-4.44-3.74-7.35-6.23,3.21,6.36,8.42,9.11,13.49,12.12a2.55,2.55,0,0,1-1.85.23c-5.56-1.78-9.48-5.7-12.46-10.43a64.48,64.48,0,0,1-10.14-32.08,59.31,59.31,0,0,1,7-29.73c.05,0,.1,0,.11,0a10.14,10.14,0,0,0,1.18-1.62,25.49,25.49,0,0,1,12.93-12.4,3.07,3.07,0,0,0,1.27-1.3c1.11-1.92,2.13-3.89,3.09-5.66-5.25.19-10.12,2.63-14.59,6.36-3.25,2.71-4.48,4.16-8,7.68a53.1,53.1,0,0,0-3.68,3.91c-.24.27-.48.56-.71.87s-.78.95-1.31,1.56c-.19.56-.38,1.11-.57,1.69a35.36,35.36,0,0,0-2,5.84l-.06.17h0c-2.51,10.06-2.5,23-2.46,26.14,0,.19,0,.37,0,.56v.2a46.91,46.91,0,0,0,1.75,9.59c1.88,7.09,4.32,14,6.52,21l-.93.37a4.85,4.85,0,0,1-.69-.67c-1.22-2.44-2.5-4.86-3.87-7.22a65.1,65.1,0,0,1-3.4-6.25c-1.32-3-2-6.23-3.19-9.31a72.86,72.86,0,0,0-5.52-10.9,31.6,31.6,0,0,0-5.07-7.13c-2.58-2.47-6-4.06-8.14-6.93-1.27-1.73-2.09-3.91-3.91-5.05s-4.42-.86-6.66-.48L665.28,242a50.75,50.75,0,0,0-6.92,1.5c-4.14,1.29-8,3.62-12.25,4.3a13.32,13.32,0,0,0-3.56.78,3.17,3.17,0,0,0-1.82,2.29l-.64.26c0,.2,0,.41.08.62h.62a6.07,6.07,0,0,0,1.24,1.89,24.74,24.74,0,0,1,3.48,6.54l1.74,4.3h0a161.58,161.58,0,0,1,6.53,18.69,192.35,192.35,0,0,1,4.11,22.38c1.23,8.59,1.4,18.2,5.64,26,1,1.9,3,3.28,4.23,5.1.68,1,.73,2.45,1.07,3.69-1.52.23-3.13.88-4.53.57s-2.41-1.61-4-2.75c-.85,2.48-1.58,4.59-2.31,6.71l-1.23-.12c-.91-5.63-1.82-11.26-2.76-17-1.77.74-3.89,1.6-4-1.81l-2.43.49a39.27,39.27,0,0,0,2.3-3.68c1-2.13,1.89-4.33,2.82-6.5q1.46,5,2.92,9.93a3.34,3.34,0,0,0,.74-2.81c-1.51-7.71-3-15.42-4.67-23.08-.69-3.12-3.08-6.29-2.63-9.1.49-3-.09-5.55-.49-8.22-.66-4.29-1.7-8.52-2.77-13.68l-2.42,3.66-6.89-3.26-.38.86,1.24,2.58c-4.61,4.21-6-.42-8.12-3.08-.19.53-.28.65-.27.76a2.81,2.81,0,0,0,.21,1c2,3.26.71,4.41-2.64,5.62-5.14,1.85-10.38,4-14.82,7.1-4.91,3.43-9.26,7.62-14.91,10a21.44,21.44,0,0,0-3.61,2.21q-16.43,11.22-32.84,22.47-31.68,21.66-63.35,43.32-9.6,6.58-19.1,13.28l-8.84-13.85h.09c2.53,0,5.12-.88,7.56-.54,3.6.52,7.09,1.78,10.89,2.79L484,367.24c3.31-2.23,8.09-2.55,9.43-7.17q9-6.33,18-12.68c5-3.5,9.94-7,15.87-11.13-2.92-1.88-5.16-4.39-7.7-4.74-5.53-.75-10.91.16-15.08,4.8-1.84,2.06-4.52,4.9-6.68,4.78-3.24-.17-6.12.86-9.17,1.1-3.69.3-7.29,1.67-11,2.21-5.5.82-11.08,2-16.57,1.8-.72,0-1.42-.08-2.12-.15L358.16,188h849.29L1042.51,425.51c14.43-.82,42.31-2.53,74.78-4.56l201.77-290.5H249L395,359.33c-8.31-2.53-15.66-3.41-22.08,4.41-.72-8.2-1.33-15.18-1.94-22.16a3.64,3.64,0,0,0-1.82,2.68,64.5,64.5,0,0,0-.12,7.74c.83,22.1.19,44.28,3.46,66.23l1.92,0a14.52,14.52,0,0,1,.36-1.66l.12-.09-.08-.08a1.36,1.36,0,0,0,0,.17l-1.06.81V395.38h.57v5.43a61.24,61.24,0,0,1,16.79-21.58c-2.17.81-3.82,2.59-5.72,2.92-3,.54-3.17,3-4.48,4.79a20.93,20.93,0,0,1-2.32,2.29l-1.27-.76c.84-2.45,1.31-5.12,2.62-7.28a70.06,70.06,0,0,1,6.51-8.44c.4-.49,1.42-.43,2.12-.71,1.28-.51,3.36-.8,3.67-1.68,1.23-3.55,1.91-7.29,2.8-11l.86,1.34c-2,10.51-4.07,21-5.95,31.53-1.52,8.52-3.9,17-3.8,25.67,1.06-.11,2.12-.23,3.19-.33.59-3.21,1.2-6.41,1.83-9.62,1.93-9.86,3.9-19.71,5.81-29.33a18.91,18.91,0,0,1,11.8,2.26L438,426.72l71.73-1.12L497.26,406a47.91,47.91,0,0,1,16.81-4.19l1.3,4.31,1.33-1.37h0l-.76-2.66,1-1,13.69,7c-.65-3.47-3.8-4.64-6.41-6.05a66.28,66.28,0,0,0-8-3.15L526,396l-2.93-.2-.75-.91,2.51-.53-.62-.73-9.13,1.78v-1.64c-5.65,0-11.29.09-16.92,0a7.52,7.52,0,0,1-6.74-4l-4.11.65-4.21-6.59c.08-1.81.16-3.71,1.11-4.67a36.11,36.11,0,0,1,9.22-6.37c8.2-4.13,15.85-8.93,22.25-15.61,6.19-6.46,13.39-11.33,22.18-13.6a7.29,7.29,0,0,0,2.13-1.05c6.65-4.63,13.27-9.3,19.93-13.92,17.61-12.22,35.42-24.15,54.68-33.69,2.62-1.3,5.35-2.35,8-3.51,6.65,1,11.11,1.26,11.24,2.08,0,.09,2.72-.8,3.45-1,2.91-.84,5.84-1.59,9-2.44.23.89.49,1.85.66,2.52.28,1.05.22,2.88-.15,2.34l-10.72,2.73a15.13,15.13,0,0,0-2.78,1,158.63,158.63,0,0,0-31,14.28A46.62,46.62,0,0,0,610,338c6.95-8.28,13.55-16.42,22.63-21.67a16.82,16.82,0,0,1,2.27-1.94l-.18-.11,17.41-5.47c.23,2.64.42,4.75.6,6.82-.44-1.44-1.57-1.56-2.93-1.05-4.86,1.82-9.71,3.68-14.91,5.66-.29.21-.59.41-.9.62s-.45.34-.67.51c-1.15,1.45-2.17,3.18-3.73,3.93-2.66,2.61-5.51,5-8.14,7.69s-5.06,5.65-7.58,8.49l.43.38,1.58-.83a17.9,17.9,0,0,1-2.33,3.9c-5.33,8.22-11,16.24-15.8,24.79a83,83,0,0,0-6.92,17.81c-1.19,4.19-3.89,6.56-6.19,8.38-5.14-1.78-9.82-1.33-14.55-1.46.89,3.35.58,3.77-2.53,3.53-1.74-.13-3.46-.5-5.2-.65-5.08-.41-10.16-.72-15.22-1.21-.68-.07-1.28-.95-2.58-2h22.3l0-.3L541.8,392c3-1.76,6.26-3,8.62-5.19,3.92-3.63,7-8.16,7.33-13.69.29-4.44-.2-8.94-.37-13.41-.21-5.91-4-9.92-8.63-12.08-2.73-1.29-6.89.45-10.55.84.33,1.88.52,3,.75,4.34l-2.21-4.1c-2.14,1.17-4.75,1-5.57,3.68-.34,1.08-.59,2.64-1.38,3.06-3.21,1.76-2.89,5-3.61,7.74a18.83,18.83,0,0,0-2.49.33c0,3.25.23,6.5.4,9.74h1.27l.42-6a6.76,6.76,0,0,0,.19,1.36c2.19,6.12,1.58,6.91-4.88,6.9a5.18,5.18,0,0,0-3.42,1.47c-1.69,1.85-3,4.06-4.52,6.07-1.88,2.47-1.49,4.23,1.45,4.94a28.67,28.67,0,0,0,6.61.63c2.84,0,5.67-.3,8.51-.48,0,.27,0,.53,0,.79l-8.88,1c0,.19,0,.37-.08.56l11,1.77c1.49,4.7,2.9,9.19,4.36,13.79l1.85-.35c-.55-3-1-5.72-1.55-8.45l.83-.18c.93,3.24,1.85,6.48,2.86,10l-.13.07c.13,2.56,1,5.2.11,6.53a5.1,5.1,0,0,1-2.76,1.57,64.55,64.55,0,0,1,12.93,6.52l0-.52-.09,0a68.85,68.85,0,0,0-1.21-8.78,30.42,30.42,0,0,0-2.72-5.76l5.09-1.42v9.24c3.67-1.62,4.88-3.47,3.37-6.61-.08-.16,2.7-2.49,3.78-2.23,2,.48,3.67,2.43,5.7,3.15,1.37.49,3.11-.07,4.58-.16-.33,1.5-.66,3-1,4.58.33.09.67.17,1,.27.9-4.47,3.11-5,10.68-4.39-.61,3.18-1.09,6.39-1.82,9.53.47.45.92.92,1.35,1.4.12-3.85,1.73-5,6-4.89a38,38,0,0,0,4.5-.46c-.68,1.16-1.35,2.18-1.89,3.27s-.93,2.13-1.47,3.41l-5.63.59a19.12,19.12,0,0,1,1.51,2.69,9.85,9.85,0,0,1,3.88-.22c-.11,1.44-.22,2.88-.33,4.34a15.5,15.5,0,0,1,4,2.72,14.15,14.15,0,0,1,1,1.15c3.74-2,7.19-1.45,8.74,2l2.66-6c.52-1.57,1-3.15,1.54-4.72q1.29-3.15,2.57-6.28c-.21-1.55-.43-3.09-.64-4.63l.06,0c-1.17-2.19-2.33-4.39-3.65-6.88,1.14-.62,2.64-2.61,5.26-.71.5.37,1.71-.25,2.6-.41l-.06-.94-3.62-1.45c0-.34.09-.67.14-1l4.58.78c2.26-4.49,4.79-9.53,7.78-15.5-.49,2-.67,3.13-1.06,4.19-.44,1.21-1.18,2.3-1.61,3.51-2,5.64-3.84,11.31-5.83,16.95a13.66,13.66,0,0,1-1.61,2.53c-.06,1.28-.11,2.56-.16,3.84q-2.62,7.71-5.24,15.42l-.72-.14v-1.37q-3.93,13.34-7.85,26.69V439.81h-179v43.76q32.3-1,63.34-1.25V591.09H531V482.32q25.66.18,52.65.93C570.3,521.45,551.16,575,550.75,579c2.46-.83,15.59-5.18,17.59-6.57,9.53-6.65,22.7-61.32,23.94-64.85l1.21-.25c2.51,3.33,14.5,7.39,15.42,5.88,0,3-.91,5.57-1.45,8.23-1.1,5.39-.55,20.1-.54,22,0,3.1-.16,6.2-.28,9.3,0,1.4-.82,16.18-.84,23.39l-14.2-22.26c-.56,37.08.34,78.87-1.74,110.8l171.5,268.76L929.62,695.7a9.08,9.08,0,0,1-1.18-1.14l1.18,1.14,54.66-96V576.34L975,478.92l50.43,113.77h74.6q-1.47-35.21-1.46-75.64,0-40.21,1.46-75.43ZM710.25,430.31l.86,1.05c-.77,3.45-5.07,1.65-6.28,4.44l-.79-1.13Zm33.75-117c.67-7.33.67-7.33,6.48-8.65l-3.75-.29c4.47-.57,9.32.89,13-3l2.9-1.24c-.24.64-.28,1.62-.74,1.87-4.44,2.46-7.4,7.22-12.77,8.27-.7.13-1.88.76-1.87,1.13.14,5.21-3.3,3.86-6.2,3.56Zm-55.92,51.4,1,.25,1.83-2.26c3.4-.49,3.42,2.61,4.15,4.76L686.2,372c.52-2.87.91-5,1.32-7.34l-3.44-1.28c.21-2.66,3.28-5.07.31-8.24,3.43-1.71,6.68-3.47,10.05-5,1.76-.78,2.44-1.5,1-3h0c-.34-1-.68-2-1-3.06l.06,0c.21-1.48.43-2.95.82-5.49l4.66,8.33-1.06,1.29,2.72.17c-2.36,2.45-4.81,4.1-5.93,6.39-1.62,3.34-4.77,3.76-7.29,5.44C687.66,360.74,688.17,363.17,688.08,364.72Zm10.29-6.93c2.23-.55,4,0,4.22,3.23l-6.1,1.68C695.84,360.39,695.74,358.45,698.37,357.79Zm4.48,6.71c-.82.38-2,.07-3,.07,0-.39-.07-.78-.1-1.17l4.8-2.12,1,.89A13.15,13.15,0,0,1,702.85,364.5Zm15.33.89c.12.43.23.87.35,1.31-1.72.37-3.43.78-5.15,1.11-1.9.37-3.82.67-5.73,1-.1-.29-.19-.58-.29-.88Zm18.18-50.84c.35,1.47.71,2.95,1.16,4.79l-4.3.21-.82-3.1Zm-14.83.74c2.07.28,4.13.63,6.37,1,0,1.1.09,2.13,0,3.15-.28,2.66-1.4,4.18-4.4,3.16a6.78,6.78,0,0,0-3.07-.58c-1.82.33-3.66,1.1-3.72-1.8C716.65,317.45,719.16,315,721.53,315.29Zm-35.44-1.14q.28-12.36.56-24.71c0-1.92-.32-4.37.13-6.23s1.17-1.34,2.92-.43c2.84,1.47,5,4,7,6.38a133.45,133.45,0,0,0,15.7,15.11c1.13.93,2.35,2,2.63,3.39a5.65,5.65,0,0,1-.27,2.6,33.57,33.57,0,0,1-10.59,16.52,9.06,9.06,0,0,1-3.36,2,10.46,10.46,0,0,1-2.68.24l-3.74,0a9.4,9.4,0,0,1-3.74-.5,7,7,0,0,1-3.48-4.08C686,321.21,686,317.62,686.09,314.15Zm8.34,30c.06.45.2,1.08.07,1.14-3.41,1.71-6.85,3.35-10.29,5l-.55-1.25Zm.93,3.07c0,.47.12,1.12-.06,1.21a64.21,64.21,0,0,1-11.77,4.81C687.09,350.4,690.7,347.71,695.36,347.19ZM494,355.12c-.19,1.62-.39,3.26-.59,4.91L482,358.54C485.39,354.68,489.28,354.41,494,355.12Zm-95.8,21.11,1.78-9.14.26.41c.15,1.37.66,2.16,1.54,2.41L407,378.1A28.5,28.5,0,0,0,398.2,376.23Zm101.7,25.28c1.86-1,4.75-1.23,4.72-4.46,0-.26.91-.67,1.44-.79,2.4-.53,4.81-1,6.71-1.37.61,1.21,1.2,2.35,1.87,3.66.1-.15,0,.16-.16.2-2.47.63-5,1.08-7.41,1.84a111.53,111.53,0,0,0-10.7,4l-.57-.89Q497.86,402.64,499.9,401.51ZM525.83,347c-10.06,7.11-20.07,14.31-30.24,21.28-5.2,3.57-10.24,7.35-15.38,11l-1.46-2.3,49.06-32.77.6.81C527.55,345.7,526.72,346.39,525.83,347Zm14.69,53.71-1.08.08a30.5,30.5,0,0,1-.65-6.19c0-.4,2.6-.62,4.75-1.09C542.19,396.76,541.36,398.74,540.52,400.73Zm62.15,9.72,2.81,2.45c-1,4.94-1.42,5.31-5.44,4.46C600.85,415.22,601.66,413.09,602.67,410.45Zm-17.23-12.56a89.16,89.16,0,0,1,9.77-1.91c2.68-.24,5.44.32,8.36.55C599.78,401.77,594.68,401.74,585.44,397.89Zm46.41,201.93a6.54,6.54,0,0,0,2.48-.89,441.26,441.26,0,0,0,17,48.53l-29-45.41C625.51,601.27,628.65,600.39,631.85,599.82Zm46.66,67.51c-.27-.38-.55-.76-.81-1.15l-3-4.35C669.31,653.89,665,646.7,663,641.7c-5.95-15.32-10.47-39.75-12.13-49.49.06-.23.11-.47.18-.7,2,5.56,3.9,10.67,5.8,15.76,1.23,3.29,2.46,6.59,3.86,9.82a10.77,10.77,0,0,0,2.1,2.42l2.8-2.46c-1.4-4.94-2.84-9.88-4.18-14.84a56.15,56.15,0,0,1-2.21-12.1c.71,2.48,1.44,4.95,2.14,7.42,6,21.08,14.57,40.87,28.1,58.32,1.31,1.69,2.54,3.44,3.75,5.2l-.22,1.16c-4-4.42-8-8.81-11.18-13.76-5.07-8-8.67-16.87-12.94-25.35-1-2-2.17-4-3.26-6.05l-2.8,2.46c.24,1.45.16,3,.77,4.32,3.14,6.53,6.24,13.1,9.78,19.42a165.2,165.2,0,0,0,18.25,26.43l-2.25,12.09a2.26,2.26,0,0,1-.67-.5C685.24,676.67,681.76,671.94,678.51,667.33ZM662.08,546.26l1.17-.25c.09,1.26.27,2.52.25,3.78a126,126,0,0,0,3.63,33.12,75.61,75.61,0,0,0,3.67,10.61c.37.9,1.92,1.31,3,2-2.53,1.83-2.15,4.7-1.38,7,5.54,16.78,13,32.4,23.09,46.29l-1.08,5.82a147.68,147.68,0,0,1-12-18C673,619.88,666,602.09,662.62,583.14c-1.88-10.59-2.43-21.43-3.49-32.16a4.79,4.79,0,0,1,1.21-3c1,34.51,10.38,66.3,29.11,95.26C671.69,613.3,661.8,581.17,662.08,546.26Zm23-54.38-1.8,3.61-.84.12c-.1-.83-.53-1.8-.24-2.46,1.25-2.9,2.73-5.7,4.06-8.56,1.16-2.47,2.73-2.95,5.14-1.07q-3.21,7.17-6.39,14.32l-1-.32c.48-1.84,1-3.67,1.45-5.5Zm-1.42,6.91.91.29c-1,3.76-2,7.51-3.12,11.43C679.59,508.81,680.77,503.36,683.64,498.79Zm10.16,43.15c-1,2.06-1.59,4.57-3.15,6.06-2.33,2.25-5.47,3.63-8,5.68-1.11.89-1.62,2.52-2.4,3.84-.81-2.3,0-3.78,2-5.22s3.48-3.46,5.2-5.22L682.59,550c-1.93-3.41-3.48-6.93-2.45-11.16a15.79,15.79,0,0,0,.29-4.56c0-.52-.78-1-1.6-2l16.57-13.09c0,6.55.23,12.05-.13,17.51-.12,1.73-1.8,3.36-2.76,5Zm-7.48,65.62-.81,1.93c-.51-.35-1.34-.6-1.49-1.06a37.06,37.06,0,0,1-1.78-8.75l2.9,3.12,0-1.59c.7.33,1.75.48,2,1,.85,1.71,1.4,3.57,2.35,6.1Zm4,12.35-1,.3L686.8,613l1.13-.36C691.07,614.39,690.32,617.26,690.3,619.91Zm-5-20L682.6,596l-.93,1.39c-1.7-1.54-3.41-3.07-5.83-5.24l3-.2c0-4.24-3.08-7.93-2.27-12.07l1-.15,1.93,3.28c-.17-1.21-.35-2.43-.53-3.64l1.38-.37c2.47,6.64,3.22,13.83,6.06,20.34Zm-7.24-23.6h0c-.3-6.61-2.8-13.17-1.32-19.81l1.13,0,2.38,19.85Zm-2-21.1a30.27,30.27,0,0,1-.23-10.65h1.34v10.64ZM682,521.4c.46-2.84.76-4.64,1.11-6.83l4.46,2.34Zm-2.68-14c-1.41-2.52-.39-6.76,2.62-8.5C681.12,501.7,680.26,504.5,679.36,507.4Zm-.27,4.87c1.92,3.11.48,10.84-2.32,12.74C677.57,520.64,678.28,516.75,679.09,512.27Zm-3.21,13.2c-.18.91-1.76,1.54-3,2.54L677,512l.89.23C677.28,516.65,676.77,521.1,675.88,525.47Zm-2.81,20,1.34-.93v12.31l-1.1,0c-.55-2.56-.85-5.08.3-7.77C673.92,548.35,673.37,547.26,673.07,545.45ZM675,558.24c.74,5.61,1.34,10.43,2,15.23a13.92,13.92,0,0,0,1.08,2.87c-2.11,0-3.07-1.2-3.28-3.2-.33-3-.71-6-1.09-9.28l-3.2.68C672.18,562.16,673.36,560.49,675,558.24Zm17.28,56.88c2.49,4.38,4.85,8.55,7.19,12.64l-1.49,8c-1.11-2.41-2.27-4.81-5-6.16-1.59-.78-1.24-6.76.16-8.41C692.81,619.34,692.56,617.48,692.23,615.12Zm15,84.22,1.18-12.94c4.56,3.59,9.15,7.14,13.69,10.78,2.43,2,4.66,4.15,7.1,6.35.93-1.38,2.52-.48,4.7-.15,4.36.66,7.4,4,11.73,4.53a106.23,106.23,0,0,1,12.68,2.67c2,.48,3.8,1.91,5.71,1.94,5.79.06,11.6-.69,17.39-.48,8.7.31,16.29-3.74,24.43-5.6,1.92-.44,3.52-2.11,5.42-2.82,4.84-1.82,8.52-5.34,12.71-8.12,1.29-.86,3.15-.86,4.75-1.25l.63,1.36c-4.28,3.85-8.14,8.43-13,11.24-2.57,1.48-5.8,2.29-8.25,4.3-1.39,1.14-2.42,2.72-3.84,3.81-3.16,2.41-6.81,2.71-10.69,2.37-1.4-.12-2.89.93-4.35,1.39-2.37.74-4.73,1.59-7.15,2.12a53.38,53.38,0,0,1-9.35,1.49c-3.41.13-6.84-.47-10.27-.66-2-.1-4,0-6,0-.34,0-.74.38-1,.29-5.28-1.86-11.07-1-16.25-2.86a140.62,140.62,0,0,1-15.34-7A49.84,49.84,0,0,1,707.23,699.34ZM709.71,672l.55-6.11q1.68,1.64,3.43,3.23c1-1.72,1.92-3.42,2.88-5.13l1.35.41c-2.39,2.79-.59,4.37.81,6.65,5.74,9.36,15.35,13,24.53,17.09,3.76,1.68,8.2,1.82,12.33,2.67.69.14,1.67.07,2,.5,4.11,5.2,10.14,4,15.5,4.52,13.73,1.24,26.75-1.66,39.09-7.73a18.7,18.7,0,0,1-2.35,2,70.32,70.32,0,0,1-38.78,10.44c-.41,0-.8-.2-1.16-.94h9.6v-1H761.14l4.6,1.08c0,.24-.06.47-.1.71l-14-2.35c0,.35-.07.69-.1,1,10.93,3.16,22.07,3.51,33.44,2-7.35,3.41-29.21,2.3-41.58-2.37s-24.13-11-34.28-19.89l.46-5.12a10.43,10.43,0,0,0,1.13-.41C710.34,672.91,710,672.47,709.71,672Zm104.15,27,.39.92-18.51,7.82-.53-.91ZM711.5,683.54l-.46.85a7.84,7.84,0,0,1-2.34-.76l0,0,.26-2.89ZM820.77,472.63c10,10.65,17.69,22.89,24.09,35.87,4,8.17,6.9,16.9,10.25,25.39.15.38-.06.89-.49,1.5a229.29,229.29,0,0,0-18.91-39.19,173.36,173.36,0,0,0-27.64-34C814,463.64,817,468.61,820.77,472.63Zm-.57,6.83L813.71,489l-.69-.45c.74-4.66,1.48-9.32,2.34-14.7ZM794,556c.24-.62,2.08-.62,3.19-.91.18.36.37.71.56,1.07l-3.24,4.71-.88-.14C793.72,559.14,793.48,557.43,794,556Zm1.75-13.4-7.19-.57c.46-5.78.93-11.55,1.38-17.24,9.67-.52,11.77,3,14.21,12.55l-5.58-10.48C797.55,532.68,796.71,537.33,795.77,542.61Zm-9.7-.64c-1-1.45-2.26-2.69-3.14-4.19-.69-1.17-.84-2.64-1.44-3.87a5.76,5.76,0,0,0-2-2.67c-3-1.43-1.61-4.46-2.59-6.6-.15-.32,1.2-1.34,1.67-1.83l-2.46-2c-1.81,2.25-13.36,0-17-3.93l-5.67-3.55,9.2-5.9c2,3.33,3.17,6.53,2.14,10.2l3.12,1c-.6-4-1.85-8-1.61-11.89.3-5,6.06-5.06,8.91-8.45.2,1.44.32,2.34.54,3.88l2.27-6,1.12.19c3.35,5.06,7.36,9.81,9.77,15.28,1.41,3.2.26,7.53.26,11.56l-3.57.42c2.8.44,3.2,1.37,1.41,3.39a69,69,0,0,0-4.36,6l.71.57,5.33-6.63c-.29,4.95-.56,8.93-.72,12.92a6.83,6.83,0,0,0,.61,2.16h0c.69,2.18,1.39,4.37,2.09,6.55l-.29.2C788.9,546.51,787.55,544.2,786.07,542Zm3.5,61c1.69,3.16,1.69,3.16-4.82,4.94-.24-.31-.49-.61-.74-.92C785.85,605.64,787.69,604.31,789.57,602.94ZM778.48,456.43l11.17-4.89,4.75,3.77-.07-.05,9.92,7c-6.56,6.59-14.35,10.6-21.33,15.13a24.88,24.88,0,0,0-1.18-3.77c-1.27-2.64-2.88-5.13-4.06-7.8-1.5-3.4-1-5.24,2.08-8.48Zm13-7,1.9-1.62L803.44,456c-.31.35-.63.69-1,1C798.88,454.56,795.26,452.08,791.47,449.46Zm-4.89,32c-2.18-2.11-2.19-3.9.54-5.47l5.41-3.13C795,479.3,788.57,478.57,786.58,481.46Zm7.61,37.83,3.48,5.13-6.74-.6Zm-3.87-16.58-.83.53q-3.65-6.24-7.27-12.49l.77-.44Zm3-10.07c-1.78-3.14.28-6.37,2.29-8.65,2.67-3,6.09-5.37,10-8.73-1.4,10.1-2.65,19.07-4,28.81C798.52,499.81,795.52,496.47,793.36,492.64Zm1-16.58c-.07-4.86,4-8.35,12.7-10.09Zm-5.57-34.15c.29-.72.37-1.74.9-2.13,5-3.72,10.14-7.34,15.52-10.9l-5.58,6.1.91,2.18-11.19,4.71v5.79l-1.58.38c-.51-1.15-1-2.31-1.52-3.47-1.07,1.8-1.91,3.82-3.31,5.31-.74.79-3.19,1.31-3.58.86a9.42,9.42,0,0,1-1.39-3.56l8.17-3Zm-19.41-11,9.69,2.88.38-.87c.2.74.4,1.47.78,2.89l-11.09-4Zm-21.86.09c3.26,0,6.71-.37,9.75.54,6.92,2.08,13.69,4.73,20.41,7.41,1.37.54,2.29,2.23,3.41,3.4l-.74.85c-1.67-.77-3.33-1.57-5-2.28a94.54,94.54,0,0,0-27.37-7.4c-1-.09-1.82-1-2.72-1.47C746,431.67,746.81,431,747.57,431Zm-5.16,11.89,1.15.13c-.2,1.94-.41,3.87-.62,5.81l.57.35c1.87-3.08,3.73-6.16,5.86-9.66h7.91l.06-.3L749,437.43a53.72,53.72,0,0,1,23.31,5.51c2.81,1.34,3.79,4.74,1.76,8.63l3.08-1.08.53.89-5.69,3.5L767.12,442l-16.48-1c3.14,6.76,6,12.88,8.83,19,1.89,4.05,1.31,5-3.25,5.55a1.47,1.47,0,0,0-.63.3l-17.63,13C739.47,466.68,740.94,454.78,742.41,442.88Zm33.45,34.65-1.21.61-6-11.7,1.15-.58ZM736.49,489a2.26,2.26,0,0,1,.73-1.49c8.83-6,17.7-12,26.8-18.14.32,5.81.64,11.7,1,17.59l.35,0V473.56l.73-.19c2,3.57,4,7.14,6,10.57l-2.41,2.62,3.06-1.38,3,5.28-9.83,7.11c-.16-3.2-.29-5.74-.41-8.28l-1.11.37c.12,1.74.13,3.51.39,5.23.46,3.08-.84,4.87-3.91,5.71l-2.79-6.27,6.32-4.68-8.17,4.08c1.34,2.63,2.82,4.71,3.34,7,.19.82-1.79,2.37-3,3.24-2.36,1.67-4.9,3.08-7.33,4.59l-3.44-4.34.06,0c.23-1.35.45-2.7.65-3.92h-3.23c.28,1.9-2.91,4.56-8.38,5.87C735.41,500.37,735.92,494.68,736.49,489Zm3,18.59c.44,1.4.79,2.48,1.14,3.55l-.56.26c-.65-1.34-1.31-2.68-2.1-4.28l5.85-4.17,1.92,1.29,3,6.53Zm7.79,34.62-.75-.26q-4.63-8-9.28-15.91l1.2-.7c2.94,4.43,6,8.82,8.76,13.35C747.73,539.53,747.27,541,747.27,542.19Zm15.65-1.64-14.22-15C753.11,526.43,760.06,533.79,762.92,540.55ZM731,544.13l2-14.64c4.14,6.14,7.71,11.43,11.42,16.91-2.27,2.08-2.66,4.43-.5,6.94a12.42,12.42,0,0,0,2.19-1.22c2.44-2,4.85-2.81,7.47-.28s3.52,6.88,2,9.68c-1.61,3-5.28,3.78-9.24,1.88-2.15-1-4.27-2.12-6.41-3.18l6.27,11.89c2.8,0,5.72,0,8.63,0a7.74,7.74,0,0,0,3.08-.56c4.19-2,8.32-4.1,12.39-6.13-.17-.94-.37-2-.63-3.4l-2.64.34c4-6.29,3.65-12-2.33-17.63l4-1.93L752.54,522a62.23,62.23,0,0,1,18.88,23.16c1.33,2.74,2.08,6,4,8.17,5.21,6,4.26,13.34,5.28,20.29-.66-3.55-1.32-7.09-2-11,.39,10.16.77,19.93,1.11,28.65.37-3.18.89-7.5,1.4-11.82-.09,10.72-1.43,21-7,30.64-5.45,9.45-12.8,15.84-23.21,18.87a28.17,28.17,0,0,1-17,.11,15.88,15.88,0,0,0-2.52-.31c1.59,1.49,2.68,2.59,3.86,3.59,3.27,2.76,3.28,2.74.6,6.17,2.56-1.58,4.95-3.75,7.73-4.61,3.41-1,7.15-1.17,10.77-1.38s7.55,0,11.74,0l-1.52,6.71.52.18,2.29-6.48,1.12.24c-.1,2.17-.2,4.33-.32,6.78,1.72-2.14-.3-5.87,3.5-6.52-.47-.41-1.41-.93-1.34-1.21.7-3-.48-6.53,2.73-8.9a10.37,10.37,0,0,0,3.4-4.34c2.62-6.82,8.86-9,14.81-12.2q2.39,5.34,4.76,10.66l1.15-.24-2.2-13.31,3.27,3.59c.15-4.42-5.49-5.65-4.9-10.15l-.9.14.86,7.2-1.38.11C791,601.61,789.31,599,791,595c1.83-4.43,4.14-9.06,3.51-14.29-.12-.94.83-2,1.28-3l.05.07h.22l-.23-.06-1.5-12.86,1.1-.23,2.21,1.46c-.49-1.45-1.63-3.14-1.38-4.58s1.66-3.09,2.92-4.26a5.18,5.18,0,0,1,3.23-.84c3.84,0,7.69.21,11.53.12a4.56,4.56,0,0,0,3.17-1.3c3.15-4.06,7.51-5,12.26-5.45l-7.15-.39,2.33-4.08.81.43c-.28.71-.57,1.41-.93,2.28,4.94-2.86,4.79-8.56-.21-14.63,2.17-2.87,4.32-5.74,8.23-5.65l-2.12-.23,2.76-3.5-7.2,4.21c0,.32.13,1.23-.25,1.71-1.07,1.36-2.52,2.51-4,.6-.53-.69-.23-2-.35-3.47l-5.95-1.26,1.68-4.3-.46-.31-2.91,4.27-11.25-17,.44-.42,6.33,6.67c.83-6.18,1.59-11.89,2.39-17.58a9.64,9.64,0,0,1,.88-3.79c2.69-4.12,5.61-8.1,8.85-12.73,3,4.43,6,8.58,8.7,12.89.41.65-.24,2-.49,3-.37,1.45-.81,2.87-1.49,5.23l4.55-4.88c2.85,5.55,5.75,10.64,8,16,.57,1.36-.87,3.57-1.39,5.42l3.1-2L847.06,528l-3.58.74c5.3.73,5.53,5.37,6.72,9.13,1.09,3.43,1.78,7,2.68,10.63l-4.2.93c5.39-.76,5.51,3.27,6.05,6.62,1,6.3,1.85,12.62,2.75,18.94l-1,.26c-.27-.48-.53-1-.85-1.56l-3.35,2.9,4.87-.38v25.72l0-.12v7.75l-1.25-1.8c0,4.2.32,7.59-.11,10.89-.32,2.46-1.81,4.75-2.42,7.2-1.67,6.71-2.89,13.54-4.82,20.16-.78,2.7-2.94,5-4.43,7.48-2.3,3.83-4.39,7.81-6.89,11.5a118.39,118.39,0,0,1-8.36,10.81c-.89,1-2.66,1.28-4,1.88l-6.52-10.24c.22,2.55,1.22,4.8,1.61,7.16a39.32,39.32,0,0,1,.08,6.48l3.63-2.2L817.77,685v-1.94l-17.7,7.6-12.91-10.22c2.06,2.92,3.75,5.24,5.36,7.63,1.4,2.08.45,3.81-2.23,3.8-6.9,0-13.81-.24-20.71-.28-3.24,0-2.86-3-3.25-4.55-1-3.92-1.14-8-1.9-12.16-.13,1.32-.2,2.66-.39,4a66.44,66.44,0,0,1-1.45,8.48,3.54,3.54,0,0,1-2.87,2,72.23,72.23,0,0,1-8.36-2.53l.33-1.18,3.36.94c.25-4.57.49-9.07.76-14-1.3,3.09-2.38,5.94-3.71,8.68-.39.82-1.45,1.33-2.21,2-.59-.69-1.57-1.3-1.7-2.07-.68-3.87-1.14-7.77-1.7-11.9-2.74,1.51-3,4.4-2.93,7.1s-1.22,4-3.56,5.09c-3.28-6.27-6.45-12.36-9.63-18.45l-.32.06c1,4.5,2,9,2.78,12.81-1.31-1.1-4.24-2.38-4.41-4-.47-4.45-3.75-4.21-6.49-5.6-2.36-1.21-4-3.91-5.84-6-1-1.11-1.84-2.35-3.06-3.93l6.2-5.89-4.63-.25c.19.4.64.9.53,1.17-.46,1.12-2,2-3.77,2.41l8.24-90.93c.8,2.64,1.87,6.11,2.94,9.33-.79.25-1.68.43-2.52.73l2.91,1.17c.1,1.28.2,2.5.3,3.73l.59.09c.08-.45.16-.91.25-1.4,1,2.73,1.91,4.68,2.39,4.68,1.62,0,4.44.86,5.19-1.09a6.46,6.46,0,0,0,4-4.14c1.66-5.43,1.48-5.48,7.18-5.26.19,0,.39-.22.87-.51l-6-12.19-7.51-2.87a3.06,3.06,0,0,1-.07-1.71c1.67-5.37-.48-9.71-3.2-14.13a82.41,82.41,0,0,1-4.36-9.08Zm-5.86-56.58,0,1.6-1.33,7.13a8,8,0,0,1-3,2.75l-1.7-3.82-1-4.87Zm-8.54,17c.42,0,.83,0,1.23,0l3,5.31-6.19-.46c.48-1.81.82-3.11,1.15-4.4ZM656.88,395.44l1.09,1.44-7.54,6.52-6,1-.39-.87Zm-25.8,18.19c1.07,2.62,2.25,4.62,2.66,6.76s-.71,3.23-2.87,1.81c-1.44-.94-2.76-2.06-4.26-3.2Zm-2.81-17.23H636l0,.86H628.3Zm4.8,19c-1.17-2.68.33-5.55,2.8-7.16,4.23-2.75,7.22.63,10.74,1.35-3.07,4.65-6.1,9.3-9.27,13.87a2.29,2.29,0,0,1-1.45.73A89.14,89.14,0,0,0,633.07,415.38Zm7.07-15.7,7.16-2.54c.17.38.33.76.49,1.14l-6.88,3.05C640.66,400.78,640.4,400.23,640.14,399.68Zm2.15,6,8.14-2.25,0,0-3.75,6.07v0Zm9.55-75.13-23.69,36A73.82,73.82,0,0,1,651.84,330.52Zm-24.47,33.86L623,377.54C621.71,372.29,625.19,368.54,627.37,364.38ZM614.27,454a60.12,60.12,0,0,1,4-28.59,29.25,29.25,0,0,1,1.89-3.53l.74.38-1.15,2.62.38.39c1.84-1.73,3.67-3.47,5.54-5.25,1.61,1.31,3.17,2.6,5.43,4.46h-3.87l2.26,1.93,6.27-1-15.84,34.07-6.46-2C613.81,456.08,614.39,455,614.27,454ZM610.4,552.1c-.73-25.3.71-50.36,7.09-75,6-23.22,15.15-45,29.89-64,5.16-6.67,11.54-12.39,17.21-18.68a5.78,5.78,0,0,0,1.46-4.18c-1-6-2.51-11.9-3.6-17.88-1.4-7.59-2.57-15.22-3.84-22.83l1-.25c4.4,31.57,29.55,101.19,44.81,141-.26-.29-.51-.58-.79-.86l2.62,11.71c1.28-.56,2-.42,2.39.06l.55,1.4c.25,1.42.17,3.17,1.29,3.26a4.19,4.19,0,0,0,2.47-1.25,14.06,14.06,0,0,1,2.19-.1,4.32,4.32,0,0,1,.54.57h0L712,508.72l.44,3.13,2.88-2,.81,1.06-2.35,2,1.72,3.44,4.94-1.63L700.07,624.28q-2.77-5.09-5.48-10.18a9.26,9.26,0,0,1-1.26-4.24c0-1.49.89-3,1.36-4.35-.35-2-.73-4.13-1.17-6.66-.2,1.68-.35,3-.57,4.9l-4.79-2.52.82-.34q-2-6.82-4.1-13.63c-1.44-4.75-1.48-9.73-3-14.55s-1.19-10-1.65-15.05c.43,1,.87,2,1.39,3.21l3.49-1.8,1.85,2.34c-.35-1.43-.56-2.25-.77-3.11l4.74-3.12q.91,11.37,1.83,22.66l1.11-.08c-1.75-11.27-2-22.47,1.3-33.54,3.35-11.25,9-20.81,19.28-27.08-.75-1.79-1.43-3.44-2.12-5.1-2.92,3.27-5.82,6.56-8.8,9.78a40.32,40.32,0,0,1-3.23,2.87l-3.24,8.3-1-.15c0-2.93-.06-5.86.1-8.78a7.59,7.59,0,0,1,2.28-7.17c2.21-1.93,4.41-3.88,6.7-5.7,3.77-3,3.81-3.1.19-7.11l-16.85,12.46-5.21-3.6c.71-2.67,1.31-5,2-7.4s.15-5.29,4.1-5.17c-3.2-2.56-.66-11.23,3.62-15.24-2.53-4.7-4.94-9.18-7.42-13.77-13.19,19.67-20,41.5-22.31,64.92.93-24.54,8.88-46.75,22.11-67.25a4.46,4.46,0,0,0-1.84,1.58c-3.6,6.33-7.55,12.5-10.64,19.07-6.86,14.58-9.81,30.23-11.5,46.15a18.25,18.25,0,0,1-1.07,3.42l-1.22-.31c.75-5.2,1.56-10.38,2.25-15.59A115.33,115.33,0,0,1,672,487.81c2.36-4.87,4.24-10,6.48-14.89a10.87,10.87,0,0,1,2.58-3.25c1-.94,3-1.4,3.33-2.45,1.59-5.17,3.13-10.16.91-15.93-4.83-12.58-8.86-25.47-13.21-38.24-1.46-4.29-2.87-8.59-4.31-12.89l.54-1.23a57.72,57.72,0,0,0-14.68,13.61c-.18.22,0,.68-.06,1C651,416.4,648.2,419,646,422.09a144.18,144.18,0,0,0-19.26,37.61c-9.31,27.27-13.22,55.43-13.39,84.18-.09,15.51-.05,31,1.53,46.45l-3.71-5.81Q610.89,568.31,610.4,552.1Zm66.85-88.35,7-8.48.85.64q-3.57,4.23-7.16,8.45Zm1.59,226.82c4.92,4.93,9.55,9.18,13.75,12.8l-.52.24,6.82,5q2,1.56,3.72,2.89c.48,1.95,2.28,2.83,4.4,3.24l2.12,1.48c0,.3.07.54.22.62,2.64,1.54,5.32,3,8.07,4.33,3,1.42,6.15,2.49,9.09,4,4.75,2.45,9.25,5.43,14.1,7.66,6.77,3.1,13.87,5.48,20.62,8.62a39.45,39.45,0,0,0,16.29,4,8.94,8.94,0,0,1,1.71.18c4.56.91,9.39,3.27,13.6,2.44,5.88-1.14,12,.74,17.82-2.41,3-1.59,6.94-1.19,10.6-1.55l-56.42,81.24Z"/></g></g></svg>